STARTFONT 2.1
COMMENT 
COMMENT From: Id: arabic24.bdf,v 1.2 1999/05/03 14:21:32 mleisher Exp $
COMMENT 
COMMENT Copyright 1996, 1997, 1998, 1999 Computing Research Labs,
COMMENT New Mexico State University
COMMENT 
COMMENT Permission is hereby granted, free of charge, to any person
COMMENT obtaining a copy of this software and associated documentation
COMMENT files (the "Software"), to deal in the Software without
COMMENT restriction, including without limitation the rights to use,
COMMENT copy, modify, merge, publish, distribute, sublicense, and/or
COMMENT sell copies of the Software, and to permit persons to whom the
COMMENT Software is furnished to do so, subject to the following
COMMENT conditions:
COMMENT 
COMMENT The above copyright notice and this permission notice shall be
COMMENT included in all copies or substantial portions of the Software.
COMMENT 
COMMENT THE SOFTWARE IS PROVIDED "AS IS", WITHOUT WARRANTY OF ANY KIND,
COMMENT EXPRESS OR IMPLIED, INCLUDING BUT NOT LIMITED TO THE WARRANTIES
COMMENT OF MERCHANTABILITY, FITNESS FOR A PARTICULAR PURPOSE AND
COMMENT NONINFRINGEMENT.  IN NO EVENT SHALL THE COMPUTING RESEARCH LAB
COMMENT OR NEW MEXICO STATE UNIVERSITY BE LIABLE FOR ANY CLAIM, DAMAGES
COMMENT OR OTHER LIABILITY, WHETHER IN AN ACTION OF CONTRACT, TORT OR
COMMENT OTHERWISE, ARISING FROM, OUT OF OR IN CONNECTION WITH THE
COMMENT SOFTWARE OR THE USE OR OTHER DEALINGS IN THE SOFTWARE.
COMMENT 
FONT -Arabic-Newspaper-Medium-R-Normal--32-246-100-100-p-137-ISO10646-1
SIZE 25 100 100
FONTBOUNDINGBOX 34 39 -2 -15
STARTPROPERTIES 18
FONTNAME_REGISTRY ""
FOUNDRY "Arabic"
FAMILY_NAME "Newspaper"
WEIGHT_NAME "Medium"
SLANT "R"
SETWIDTH_NAME "Normal"
ADD_STYLE_NAME ""
PIXEL_SIZE 32
POINT_SIZE 246
RESOLUTION_X 100
RESOLUTION_Y 100
SPACING "p"
AVERAGE_WIDTH 137
CHARSET_REGISTRY "ISO10646"
CHARSET_ENCODING "1"
FONT_ASCENT 24
FONT_DESCENT 11
_XMBDFED_INFO "Edited with xmbdfed 3.8."
ENDPROPERTIES
CHARS 614
STARTCHAR 060C
ENCODING 1548
SWIDTH 201 0
DWIDTH 7 0
BBX 3 7 2 0
BITMAP
40
40
40
80
E0
E0
60
ENDCHAR
STARTCHAR 061B
ENCODING 1563
SWIDTH 259 0
DWIDTH 9 0
BBX 3 11 3 1
BITMAP
20
40
C0
E0
E0
80
00
00
C0
E0
C0
ENDCHAR
STARTCHAR 061F
ENCODING 1567
SWIDTH 374 0
DWIDTH 13 0
BBX 8 17 2 0
BITMAP
1C
7E
47
C7
82
80
C0
70
78
3C
0C
04
00
00
0C
0C
04
ENDCHAR
STARTCHAR 0621
ENCODING 1569
SWIDTH 345 0
DWIDTH 12 0
BBX 7 9 3 -1
BITMAP
38
78
40
80
FE
FC
60
80
80
ENDCHAR
STARTCHAR 0622
ENCODING 1570
SWIDTH 172 0
DWIDTH 6 0
BBX 6 17 0 0
BITMAP
34
78
80
10
30
30
30
30
30
30
30
30
30
10
10
10
10
ENDCHAR
STARTCHAR 0623
ENCODING 1571
SWIDTH 172 0
DWIDTH 6 0
BBX 5 19 0 0
BITMAP
70
C0
F8
70
40
10
10
20
30
30
30
30
30
10
10
10
10
10
10
ENDCHAR
STARTCHAR 0624
ENCODING 1572
SWIDTH 288 0
DWIDTH 10 0
BBX 12 22 -2 -6
BITMAP
0380
0600
07C0
0380
0200
0000
0000
0000
0000
0040
00E0
01B0
0130
01B0
01F0
00F0
0030
0030
8060
61C0
3F80
0F00
ENDCHAR
STARTCHAR 0625
ENCODING 1573
SWIDTH 172 0
DWIDTH 6 0
BBX 5 23 1 -7
BITMAP
20
60
60
60
60
60
60
60
60
60
20
20
20
20
20
20
00
00
60
80
D8
F0
C0
ENDCHAR
STARTCHAR 0626
ENCODING 1574
SWIDTH 518 0
DWIDTH 18 0
BBX 16 19 1 -6
BITMAP
0380
0600
07C0
0380
0200
0007
001F
207A
20C0
4080
4180
41F8
81FE
803E
800E
C07C
E3F8
7FE0
3F00
ENDCHAR
STARTCHAR 0627
ENCODING 1575
SWIDTH 172 0
DWIDTH 6 0
BBX 2 16 2 0
BITMAP
C0
80
C0
C0
C0
C0
C0
C0
C0
C0
C0
C0
40
40
40
40
ENDCHAR
STARTCHAR 0628
ENCODING 1576
SWIDTH 489 0
DWIDTH 17 0
BBX 15 13 1 -6
BITMAP
0004
8004
8002
8002
C00E
FFFC
3FF8
0000
0000
0000
0100
0380
0180
ENDCHAR
STARTCHAR 0629
ENCODING 1577
SWIDTH 259 0
DWIDTH 9 0
BBX 8 15 1 -1
BITMAP
6C
7E
24
00
00
20
20
38
3C
5E
87
83
FE
FE
10
ENDCHAR
STARTCHAR 062A
ENCODING 1578
SWIDTH 489 0
DWIDTH 17 0
BBX 15 10 1 0
BITMAP
06C0
07E0
0240
0004
8004
8002
8002
C00E
FFFC
3FF8
ENDCHAR
STARTCHAR 062B
ENCODING 1579
SWIDTH 489 0
DWIDTH 17 0
BBX 15 14 1 0
BITMAP
0100
0380
0180
0000
0240
07E0
0360
0004
8004
8002
8002
C00E
FFFC
3FF8
ENDCHAR
STARTCHAR 062C
ENCODING 1580
SWIDTH 374 0
DWIDTH 13 0
BBX 12 17 2 -9
BITMAP
7860
7FC0
FFC0
3800
6000
4000
4000
8000
8600
8700
8200
8000
C000
C000
7070
3FC0
1F00
ENDCHAR
STARTCHAR 062D
ENCODING 1581
SWIDTH 403 0
DWIDTH 14 0
BBX 13 17 1 -9
BITMAP
3C30
3FE0
7FE0
1C00
3000
2000
2000
4000
4000
4000
4000
4000
6000
6000
3838
1FE0
0F80
ENDCHAR
STARTCHAR 062E
ENCODING 1582
SWIDTH 374 0
DWIDTH 13 0
BBX 12 24 2 -9
BITMAP
0400
0E00
0600
0000
0000
0000
0000
7860
7FC0
FFC0
3800
6000
4000
4000
8000
8000
8000
8000
8000
C000
C000
7070
3FC0
1F00
ENDCHAR
STARTCHAR 062F
ENCODING 1583
SWIDTH 316 0
DWIDTH 11 0
BBX 8 10 2 0
BITMAP
04
06
06
02
03
01
81
CF
FF
7C
ENDCHAR
STARTCHAR 0630
ENCODING 1584
SWIDTH 316 0
DWIDTH 11 0
BBX 8 16 2 0
BITMAP
10
38
18
00
00
00
04
06
06
02
03
01
81
CF
FF
7C
ENDCHAR
STARTCHAR 0631
ENCODING 1585
SWIDTH 259 0
DWIDTH 9 0
BBX 11 11 -2 -5
BITMAP
0080
00C0
00C0
0060
0060
0060
0060
00C0
8180
7F00
1E00
ENDCHAR
STARTCHAR 0632
ENCODING 1586
SWIDTH 259 0
DWIDTH 9 0
BBX 11 18 -2 -5
BITMAP
0400
0E00
0600
0000
0000
0000
0000
0080
00C0
00C0
0060
0060
0060
0060
00C0
8180
7F00
1E00
ENDCHAR
STARTCHAR 0633
ENCODING 1587
SWIDTH 691 0
DWIDTH 24 0
BBX 22 12 1 -6
BITMAP
000084
00208C
00208C
40318C
403FFC
401FFC
801000
801000
806000
E1E000
7FC000
3E0000
ENDCHAR
STARTCHAR 0634
ENCODING 1588
SWIDTH 720 0
DWIDTH 25 0
BBX 24 21 1 -6
BITMAP
000080
0001C0
0000C0
000000
000120
0003F0
0001B0
000000
000000
000042
001046
003047
4038C7
401FFE
401FFE
801800
801800
803000
E0F000
7FC000
3F0000
ENDCHAR
STARTCHAR 0635
ENCODING 1589
SWIDTH 864 0
DWIDTH 30 0
BBX 29 13 1 -6
BITMAP
00000780
00000FE0
00103DF0
00307078
4019C038
401FFFF0
400FFFE0
80080000
80080000
C0100000
E0F00000
7FE00000
1F000000
ENDCHAR
STARTCHAR 0636
ENCODING 1590
SWIDTH 864 0
DWIDTH 30 0
BBX 29 19 1 -6
BITMAP
00000400
00000E00
00000600
00000000
00000000
00000000
00000780
00000FE0
00103DF0
00307078
4019C038
401FFFF0
400FFFE0
80080000
80080000
C0100000
E0F00000
7FE00000
1F000000
ENDCHAR
STARTCHAR 0637
ENCODING 1591
SWIDTH 518 0
DWIDTH 18 0
BBX 16 17 1 0
BITMAP
0800
0800
0C00
0E00
0C00
0C00
0C00
0C00
0400
0400
0478
05FE
059E
0707
1E07
FFFE
7FFE
ENDCHAR
STARTCHAR 0638
ENCODING 1592
SWIDTH 518 0
DWIDTH 18 0
BBX 16 17 1 0
BITMAP
0800
0800
0C00
0E00
0C20
0C70
0C30
0C00
0400
0400
0478
05FE
059E
0707
1E07
FFFE
7FFE
ENDCHAR
STARTCHAR 0639
ENCODING 1593
SWIDTH 374 0
DWIDTH 13 0
BBX 13 20 1 -10
BITMAP
1C00
3E00
3100
4000
7180
7F80
3F00
1C00
3000
6000
4000
8000
8000
8000
8000
8000
8000
6018
7FE0
1F80
ENDCHAR
STARTCHAR 063A
ENCODING 1594
SWIDTH 374 0
DWIDTH 13 0
BBX 13 25 1 -10
BITMAP
1000
3800
1800
0000
0000
1C00
3E00
3100
4000
7180
7F80
3F00
1C00
3000
6000
4000
8000
8000
8000
8000
8000
8000
6018
7FE0
1F80
ENDCHAR
STARTCHAR 0640
ENCODING 1600
SWIDTH 432 0
DWIDTH 15 0
BBX 15 2 0 0
BITMAP
FFFE
FFFE
ENDCHAR
STARTCHAR 0641
ENCODING 1601
SWIDTH 633 0
DWIDTH 22 0
BBX 20 16 1 -1
BITMAP
000080
0001C0
0000C0
000000
000000
000040
0001E0
0001F0
400330
400330
8003F0
8001F0
C000F0
7FFFF0
3FFFE0
07E000
ENDCHAR
STARTCHAR 0642
ENCODING 1602
SWIDTH 460 0
DWIDTH 16 0
BBX 14 20 1 -7
BITMAP
0120
03F0
01B0
0000
0000
0000
0070
0078
00F8
009C
40CC
40FC
807C
8004
8004
8018
C078
61F0
7FC0
1F00
ENDCHAR
STARTCHAR 0643
ENCODING 1603
SWIDTH 432 0
DWIDTH 15 0
BBX 13 17 1 0
BITMAP
0008
0018
0018
0018
0018
0018
0218
0218
0718
0108
8208
8008
8008
C008
E038
7FF8
7FF0
ENDCHAR
STARTCHAR 0644
ENCODING 1604
SWIDTH 403 0
DWIDTH 14 0
BBX 12 21 1 -4
BITMAP
0020
0060
0060
0060
0060
0020
0020
0020
0030
0030
0030
0030
4030
4030
8010
8010
8010
8030
C0E0
7FC0
1E00
ENDCHAR
STARTCHAR 0645
ENCODING 1605
SWIDTH 345 0
DWIDTH 12 0
BBX 10 17 1 -10
BITMAP
0C00
1C00
3E00
2700
0380
7FC0
FFC0
C000
C000
C000
4000
6000
6000
6000
2000
2000
2000
ENDCHAR
STARTCHAR 0646
ENCODING 1606
SWIDTH 432 0
DWIDTH 15 0
BBX 13 18 1 -6
BITMAP
0200
0700
0300
0000
0000
0000
0010
0010
2038
4018
4018
8008
8008
C018
C078
F9F0
7FE0
1F00
ENDCHAR
STARTCHAR 0647
ENCODING 1607
SWIDTH 259 0
DWIDTH 9 0
BBX 8 10 1 -1
BITMAP
20
20
38
3C
5E
87
83
FE
FE
10
ENDCHAR
STARTCHAR 0648
ENCODING 1608
SWIDTH 288 0
DWIDTH 10 0
BBX 12 13 -2 -6
BITMAP
00C0
01E0
01E0
0110
0190
01F0
00F0
0030
0060
8060
41C0
3F80
1F00
ENDCHAR
STARTCHAR 0649
ENCODING 1609
SWIDTH 518 0
DWIDTH 18 0
BBX 16 14 1 -6
BITMAP
0007
001F
207A
20C0
4080
4180
41F8
81FE
803E
800E
C07C
E3F8
7FE0
3F00
ENDCHAR
STARTCHAR 064A
ENCODING 1610
SWIDTH 518 0
DWIDTH 18 0
BBX 16 19 1 -11
BITMAP
0007
001F
207A
20C0
4080
4180
41F8
81FE
803E
800E
C07C
E3F8
7FE0
3F00
0000
0000
3600
3F00
1200
ENDCHAR
STARTCHAR 064B
ENCODING 1611
SWIDTH 201 0
DWIDTH 7 0
BBX 6 7 1 17
BITMAP
04
18
30
CC
38
60
80
ENDCHAR
STARTCHAR 064C
ENCODING 1612
SWIDTH 230 0
DWIDTH 8 0
BBX 7 7 1 17
BITMAP
08
1C
1C
F8
AC
32
60
ENDCHAR
STARTCHAR 064D
ENCODING 1613
SWIDTH 201 0
DWIDTH 7 0
BBX 6 7 1 -8
BITMAP
04
08
30
CC
38
60
80
ENDCHAR
STARTCHAR 064E
ENCODING 1614
SWIDTH 201 0
DWIDTH 7 0
BBX 6 4 1 17
BITMAP
0C
10
60
80
ENDCHAR
STARTCHAR 064F
ENCODING 1615
SWIDTH 201 0
DWIDTH 7 0
BBX 6 7 1 17
BITMAP
0C
1C
14
1C
1C
30
60
ENDCHAR
STARTCHAR 0650
ENCODING 1616
SWIDTH 201 0
DWIDTH 7 0
BBX 6 4 1 -5
BITMAP
04
08
30
C0
ENDCHAR
STARTCHAR 0651
ENCODING 1617
SWIDTH 201 0
DWIDTH 7 0
BBX 6 6 1 17
BITMAP
04
14
94
BC
F8
E0
ENDCHAR
STARTCHAR 0652
ENCODING 1618
SWIDTH 172 0
DWIDTH 6 0
BBX 5 6 1 17
BITMAP
70
78
98
88
F8
F0
ENDCHAR
STARTCHAR 0660
ENCODING 1632
SWIDTH 259 0
DWIDTH 9 0
BBX 4 4 3 5
BITMAP
40
E0
E0
60
ENDCHAR
STARTCHAR 0661
ENCODING 1633
SWIDTH 345 0
DWIDTH 12 0
BBX 6 16 2 0
BITMAP
40
60
60
70
70
38
38
18
1C
0C
0C
0C
04
04
04
04
ENDCHAR
STARTCHAR 0662
ENCODING 1634
SWIDTH 374 0
DWIDTH 13 0
BBX 9 15 2 0
BITMAP
4080
C080
FB80
7F00
7E00
3000
3800
1800
1800
0C00
0C00
0C00
0C00
0400
0400
ENDCHAR
STARTCHAR char1635
ENCODING 1635
SWIDTH 403 0
DWIDTH 14 0
BBX 12 15 1 0
BITMAP
4110
E1A0
FFE0
7EC0
7800
3800
3800
1800
1800
0C00
0C00
0C00
0C00
0400
0400
ENDCHAR
STARTCHAR 0664
ENCODING 1636
SWIDTH 345 0
DWIDTH 12 0
BBX 7 15 3 0
BITMAP
10
30
70
C0
C0
E0
F8
70
30
60
C0
80
C2
FC
F8
ENDCHAR
STARTCHAR 0665
ENCODING 1637
SWIDTH 374 0
DWIDTH 13 0
BBX 8 9 2 3
BITMAP
1C
3E
67
43
C1
C1
C7
7E
3C
ENDCHAR
STARTCHAR 0666
ENCODING 1638
SWIDTH 432 0
DWIDTH 15 0
BBX 11 16 2 0
BITMAP
8000
FE00
7E00
0600
0700
0300
0300
0300
0300
0300
0380
0180
01C0
01C0
00E0
00C0
ENDCHAR
STARTCHAR 0667
ENCODING 1639
SWIDTH 460 0
DWIDTH 16 0
BBX 12 15 2 0
BITMAP
C020
C060
E060
60E0
70C0
3180
3180
1B00
1B00
0E00
0E00
0E00
0C00
0400
0400
ENDCHAR
STARTCHAR 0668
ENCODING 1640
SWIDTH 460 0
DWIDTH 16 0
BBX 12 15 2 0
BITMAP
0400
0400
0400
0E00
0E00
0E00
1B00
1B00
1980
3180
30C0
60E0
E060
C070
4020
ENDCHAR
STARTCHAR 0669
ENCODING 1641
SWIDTH 374 0
DWIDTH 13 0
BBX 9 15 2 0
BITMAP
3800
7C00
7C00
CC00
8C00
FC00
7600
0600
0600
0600
0300
0300
0380
0180
0100
ENDCHAR
STARTCHAR 066A
ENCODING 1642
SWIDTH 403 0
DWIDTH 14 0
BBX 14 21 0 0
BITMAP
0010
6010
F020
F020
6040
0040
0080
0080
0100
0100
0200
0200
0400
0C00
083C
183C
103C
3018
2000
6000
4000
ENDCHAR
STARTCHAR char1643
ENCODING 1643
SWIDTH 230 0
DWIDTH 8 0
BBX 6 7 2 -4
BITMAP
0C
0C
0C
04
0C
18
F0
ENDCHAR
STARTCHAR char1644
ENCODING 1644
SWIDTH 144 0
DWIDTH 5 0
BBX 2 7 2 -4
BITMAP
C0
C0
C0
40
40
40
80
ENDCHAR
STARTCHAR char1645
ENCODING 1645
SWIDTH 288 0
DWIDTH 10 0
BBX 9 9 2 3
BITMAP
0800
0800
1C00
FF80
7F00
1C00
3E00
3E00
6300
ENDCHAR
STARTCHAR 0670
ENCODING 1648
SWIDTH 86 0
DWIDTH 3 0
BBX 2 6 0 17
BITMAP
40
80
C0
C0
40
40
ENDCHAR
STARTCHAR 0671
ENCODING 1649
SWIDTH 144 0
DWIDTH 5 0
BBX 7 18 -1 0
BITMAP
0E
72
9C
00
10
10
20
30
30
30
30
30
10
10
10
10
10
10
ENDCHAR
STARTCHAR 0672
ENCODING 1650
SWIDTH 230 0
DWIDTH 8 0
BBX 8 20 -1 0
BITMAP
0E
1C
10
1F
5C
B0
04
04
08
0C
0C
0C
0C
0C
04
04
04
04
04
04
ENDCHAR
STARTCHAR 0673
ENCODING 1651
SWIDTH 230 0
DWIDTH 8 0
BBX 8 21 -1 -7
BITMAP
04
04
08
0C
0C
0C
0C
0C
04
04
04
04
04
04
00
0E
1C
10
1F
5C
B0
ENDCHAR
STARTCHAR 0674
ENCODING 1652
SWIDTH 172 0
DWIDTH 6 0
BBX 5 6 1 17
BITMAP
70
E0
80
F8
60
40
ENDCHAR
STARTCHAR 0675
ENCODING 1653
SWIDTH 86 0
DWIDTH 3 0
BBX 8 17 0 0
BITMAP
0E
1C
10
5F
4C
88
C0
C0
C0
C0
C0
40
40
40
40
40
40
ENDCHAR
STARTCHAR 0676
ENCODING 1654
SWIDTH 345 0
DWIDTH 12 0
BBX 17 18 -2 -6
BITMAP
000700
000E00
000800
000F80
000600
004400
00E000
01B000
013000
01B000
01F000
00F000
003000
003000
806000
61C000
3F8000
0F0000
ENDCHAR
STARTCHAR 0677
ENCODING 1655
SWIDTH 345 0
DWIDTH 12 0
BBX 17 18 -2 -6
BITMAP
030700
070E00
050800
070F80
070600
0C4400
18E000
01B000
013000
01B000
01F000
00F000
003000
003000
806000
61C000
3F8000
0F0000
ENDCHAR
STARTCHAR 0678
ENCODING 1656
SWIDTH 460 0
DWIDTH 16 0
BBX 21 20 1 -6
BITMAP
000070
0000E0
000080
0000F8
000060
000040
000700
001F00
207A00
20C000
408000
418000
41F800
81FE00
803E00
800E00
C07C00
E3F800
7FE000
3F0000
ENDCHAR
STARTCHAR 0679
ENCODING 1657
SWIDTH 489 0
DWIDTH 17 0
BBX 15 11 1 0
BITMAP
0400
0500
0680
0780
0004
8004
8002
8002
C00E
FFFC
3FF8
ENDCHAR
STARTCHAR 067A
ENCODING 1658
SWIDTH 489 0
DWIDTH 17 0
BBX 15 13 1 0
BITMAP
0100
0380
0180
0100
0380
0180
0004
8004
8002
8002
C00E
FFFC
3FF8
ENDCHAR
STARTCHAR 067B
ENCODING 1659
SWIDTH 489 0
DWIDTH 17 0
BBX 15 14 1 -7
BITMAP
0004
8004
8002
8002
C00E
FFFC
3FF8
0000
0080
01C0
00C0
0080
01C0
00C0
ENDCHAR
STARTCHAR 067C
ENCODING 1660
SWIDTH 489 0
DWIDTH 17 0
BBX 15 13 1 -3
BITMAP
06C0
07E0
0240
0004
8004
8002
8002
C00E
FFFC
3FF8
06C0
06C0
0380
ENDCHAR
STARTCHAR 067D
ENCODING 1661
SWIDTH 489 0
DWIDTH 17 0
BBX 15 13 1 0
BITMAP
0480
0FC0
06C0
0100
0380
0180
0004
8004
8002
8002
C00E
FFFC
3FF8
ENDCHAR
STARTCHAR 067E
ENCODING 1662
SWIDTH 489 0
DWIDTH 17 0
BBX 15 14 1 -7
BITMAP
0004
8004
8002
8002
C00E
FFFC
3FF8
0000
0240
07E0
0360
0080
01C0
00C0
ENDCHAR
STARTCHAR 067F
ENCODING 1663
SWIDTH 489 0
DWIDTH 17 0
BBX 15 13 1 0
BITMAP
0480
0FC0
06C0
0480
0FC0
06C0
0004
8004
8002
8002
C00E
FFFC
3FF8
ENDCHAR
STARTCHAR 0680
ENCODING 1664
SWIDTH 489 0
DWIDTH 17 0
BBX 15 14 1 -7
BITMAP
0004
8004
8002
8002
C00E
FFFC
3FF8
0000
0480
0FC0
06C0
0480
0FC0
06C0
ENDCHAR
STARTCHAR 0681
ENCODING 1665
SWIDTH 374 0
DWIDTH 13 0
BBX 12 23 2 -9
BITMAP
0700
0C00
0F80
0700
0400
0000
7860
7FC0
FFC0
3800
6000
4000
4000
8000
8000
8000
8000
8000
C000
C000
7070
3FC0
1F00
ENDCHAR
STARTCHAR 0682
ENCODING 1666
SWIDTH 403 0
DWIDTH 14 0
BBX 13 24 1 -9
BITMAP
0400
0E00
0600
0400
0E00
0600
0000
3C30
3FE0
7FE0
1C00
3000
2000
2000
4000
4000
4000
4000
4000
6000
6000
3838
1FE0
0F80
ENDCHAR
STARTCHAR 0683
ENCODING 1667
SWIDTH 403 0
DWIDTH 14 0
BBX 13 17 1 -9
BITMAP
3C30
3FE0
7FE0
1C00
3000
2000
2000
4000
46C0
47E0
4240
4000
6000
6000
3838
1FE0
0F80
ENDCHAR
STARTCHAR 0684
ENCODING 1668
SWIDTH 403 0
DWIDTH 14 0
BBX 13 17 1 -9
BITMAP
3C30
3FE0
7FE0
1C00
3000
2000
2180
41C0
4080
4180
41C0
4080
6000
6000
3838
1FE0
0F80
ENDCHAR
STARTCHAR 0685
ENCODING 1669
SWIDTH 403 0
DWIDTH 14 0
BBX 13 24 1 -9
BITMAP
0200
0700
0300
0480
0FC0
06C0
0000
3C30
3FE0
7FE0
1C00
3000
2000
2000
4000
4000
4000
4000
4000
6000
6000
3838
1FE0
0F80
ENDCHAR
STARTCHAR 0686
ENCODING 1670
SWIDTH 403 0
DWIDTH 14 0
BBX 13 17 1 -9
BITMAP
3C30
3FE0
7FE0
1C00
3000
2000
2000
46C0
47E0
4240
4180
41C0
6080
6000
3838
1FE0
0F80
ENDCHAR
STARTCHAR 0687
ENCODING 1671
SWIDTH 403 0
DWIDTH 14 0
BBX 13 17 1 -9
BITMAP
3C30
3FE0
7FE0
1C00
3000
2000
2000
46C0
47E0
4240
46C0
47E0
6240
6000
3838
1FE0
0F80
ENDCHAR
STARTCHAR 0688
ENCODING 1672
SWIDTH 316 0
DWIDTH 11 0
BBX 8 15 2 0
BITMAP
10
14
1A
1E
00
04
06
06
02
03
01
81
CF
FF
7C
ENDCHAR
STARTCHAR 0689
ENCODING 1673
SWIDTH 316 0
DWIDTH 11 0
BBX 8 13 2 -2
BITMAP
04
06
06
02
03
01
81
CF
FF
7E
1B
1B
0E
ENDCHAR
STARTCHAR 068A
ENCODING 1674
SWIDTH 316 0
DWIDTH 11 0
BBX 8 14 2 -4
BITMAP
04
06
06
02
03
01
81
CF
FF
7C
00
04
0E
06
ENDCHAR
STARTCHAR 068B
ENCODING 1675
SWIDTH 316 0
DWIDTH 11 0
BBX 8 19 2 -4
BITMAP
10
14
1A
1E
00
04
06
06
02
03
01
81
CF
FF
7C
00
04
0E
06
ENDCHAR
STARTCHAR 068C
ENCODING 1676
SWIDTH 316 0
DWIDTH 11 0
BBX 8 16 2 0
BITMAP
24
7E
36
00
00
00
04
06
06
02
03
01
81
CF
FF
7C
ENDCHAR
STARTCHAR 068D
ENCODING 1677
SWIDTH 316 0
DWIDTH 11 0
BBX 8 14 2 -4
BITMAP
04
06
06
02
03
01
81
CF
FF
7C
00
24
7E
36
ENDCHAR
STARTCHAR 068E
ENCODING 1678
SWIDTH 316 0
DWIDTH 11 0
BBX 8 19 2 0
BITMAP
10
38
18
24
7E
36
00
00
00
04
06
06
02
03
01
81
CF
FF
7C
ENDCHAR
STARTCHAR 068F
ENCODING 1679
SWIDTH 316 0
DWIDTH 11 0
BBX 8 19 2 0
BITMAP
24
7E
36
08
1C
0C
00
00
00
04
06
06
02
03
01
81
CF
FF
7C
ENDCHAR
STARTCHAR 0690
ENCODING 1680
SWIDTH 316 0
DWIDTH 11 0
BBX 8 19 2 0
BITMAP
24
7E
36
24
7E
36
00
00
00
04
06
06
02
03
01
81
CF
FF
7C
ENDCHAR
STARTCHAR 0691
ENCODING 1681
SWIDTH 259 0
DWIDTH 9 0
BBX 11 18 -2 -5
BITMAP
0400
0500
0680
0780
0000
0000
0000
0080
00C0
00C0
0060
0060
0060
0060
00C0
8180
7F00
1E00
ENDCHAR
STARTCHAR 0692
ENCODING 1682
SWIDTH 259 0
DWIDTH 9 0
BBX 11 17 -2 -5
BITMAP
0440
06C0
0380
0100
0000
0000
0080
00C0
00C0
0060
0060
0060
0060
00C0
8180
7F00
1E00
ENDCHAR
STARTCHAR 0693
ENCODING 1683
SWIDTH 259 0
DWIDTH 9 0
BBX 12 12 -2 -6
BITMAP
0080
00C0
00C0
0060
0060
0060
0060
00C0
81E0
7FB0
1FB0
00E0
ENDCHAR
STARTCHAR 0694
ENCODING 1684
SWIDTH 259 0
DWIDTH 9 0
BBX 12 12 -2 -6
BITMAP
0080
00C0
00C0
0060
0060
0060
0060
00C0
8180
7F20
1E70
0030
ENDCHAR
STARTCHAR 0695
ENCODING 1685
SWIDTH 259 0
DWIDTH 9 0
BBX 11 16 -2 -10
BITMAP
0080
00C0
00C0
0060
0060
0060
0060
00C0
8180
7F00
1E00
0000
1100
1B00
0E00
0400
ENDCHAR
STARTCHAR 0696
ENCODING 1686
SWIDTH 259 0
DWIDTH 9 0
BBX 12 12 -2 -6
BITMAP
0080
00C0
00C0
0060
0860
1C60
0C60
00C0
8180
7F20
1E70
0030
ENDCHAR
STARTCHAR 0697
ENCODING 1687
SWIDTH 259 0
DWIDTH 9 0
BBX 12 18 -2 -5
BITMAP
0120
03F0
01B0
0000
0000
0000
0000
0080
00C0
00C0
0060
0060
0060
0060
00C0
8180
7F00
1E00
ENDCHAR
STARTCHAR 0698
ENCODING 1688
SWIDTH 259 0
DWIDTH 9 0
BBX 12 21 -2 -5
BITMAP
0080
01C0
00C0
0120
03F0
01B0
0000
0000
0000
0000
0080
00C0
00C0
0060
0060
0060
0060
00C0
8180
7F00
1E00
ENDCHAR
STARTCHAR 0699
ENCODING 1689
SWIDTH 259 0
DWIDTH 9 0
BBX 11 21 -2 -5
BITMAP
0480
0FC0
06C0
0480
0FC0
06C0
0000
0000
0000
0000
0080
00C0
00C0
0060
0060
0060
0060
00C0
8180
7F00
1E00
ENDCHAR
STARTCHAR 069A
ENCODING 1690
SWIDTH 720 0
DWIDTH 25 0
BBX 24 17 1 -6
BITMAP
000080
0001C0
0000C0
000000
000000
000042
001046
003047
4038C7
401FFE
401FFE
801800
801880
8031C0
E0F0C0
7FC000
3F0000
ENDCHAR
STARTCHAR 069B
ENCODING 1691
SWIDTH 720 0
DWIDTH 25 0
BBX 24 13 1 -7
BITMAP
000042
001046
003047
4038C7
401FFE
401FFE
801800
801920
8033F0
E0F1B0
7FC040
3F00E0
000060
ENDCHAR
STARTCHAR 069C
ENCODING 1692
SWIDTH 720 0
DWIDTH 25 0
BBX 24 22 1 -7
BITMAP
000080
0001C0
0000C0
000000
000120
0003F0
0001B0
000000
000000
000042
001046
003047
4038C7
401FFE
401FFE
801800
801920
8033F0
E0F1B0
7FC040
3F00E0
000060
ENDCHAR
STARTCHAR 069D
ENCODING 1693
SWIDTH 864 0
DWIDTH 30 0
BBX 29 13 1 -6
BITMAP
00000780
00000FE0
00103DF0
00307078
4019C038
401FFFF0
400FFFE0
80080000
80082400
C0107E00
E0F03600
7FE00000
1F000000
ENDCHAR
STARTCHAR 069E
ENCODING 1694
SWIDTH 864 0
DWIDTH 30 0
BBX 29 20 1 -6
BITMAP
00000400
00000E00
00000600
00000900
00001F80
00000D80
00000000
00000780
00000FE0
00103DF0
00307078
4019C038
401FFFF0
400FFFE0
80080000
80080000
C0100000
E0F00000
7FE00000
1F000000
ENDCHAR
STARTCHAR 069F
ENCODING 1695
SWIDTH 518 0
DWIDTH 18 0
BBX 16 17 1 0
BITMAP
0800
0800
0C00
0E20
0C70
0C30
0C48
0CFC
046C
0400
0478
05FE
059E
0707
1E07
FFFE
7FFE
ENDCHAR
STARTCHAR 06A0
ENCODING 1696
SWIDTH 374 0
DWIDTH 13 0
BBX 13 27 1 -11
BITMAP
0800
1C00
0C00
1200
3F00
1B00
0000
1C00
3E00
7100
6000
7180
7F80
3F00
1C00
3000
6000
4000
8000
8000
8000
8000
8000
8000
6018
7FE0
1F80
ENDCHAR
STARTCHAR 06A1
ENCODING 1697
SWIDTH 633 0
DWIDTH 22 0
BBX 20 11 1 -1
BITMAP
000040
0001E0
0001F0
400330
400330
8003F0
8001F0
C000F0
7FFFF0
3FFFE0
07E000
ENDCHAR
STARTCHAR 06A2
ENCODING 1698
SWIDTH 633 0
DWIDTH 22 0
BBX 21 14 1 -4
BITMAP
000040
0001E0
0001F0
400330
400330
8003F0
8001F0
C000F0
7FFFF0
3FFFE0
07E000
000010
000038
000018
ENDCHAR
STARTCHAR 06A3
ENCODING 1699
SWIDTH 633 0
DWIDTH 22 0
BBX 21 19 1 -5
BITMAP
000200
000700
000300
000000
000040
0001E0
0001F0
400330
400330
8003F0
8001F0
C000F0
7FFFF0
3FFFE0
07E000
000000
001000
003800
001800
ENDCHAR
STARTCHAR 06A4
ENCODING 1700
SWIDTH 633 0
DWIDTH 22 0
BBX 20 18 1 -1
BITMAP
000100
000380
000180
000240
0007E0
000360
000000
000040
0001E0
0001F0
400330
400330
8003F0
8001F0
C000F0
7FFFF0
3FFFE0
07E000
ENDCHAR
STARTCHAR 06A5
ENCODING 1701
SWIDTH 633 0
DWIDTH 22 0
BBX 22 17 1 -7
BITMAP
000040
0001E0
0001F0
400330
400330
8003F0
8001F0
C000F0
7FFFF0
3FFFE0
07E000
000048
0000FC
00006C
000010
000038
000018
ENDCHAR
STARTCHAR 06A6
ENCODING 1702
SWIDTH 633 0
DWIDTH 22 0
BBX 20 18 1 -1
BITMAP
000900
001F80
000D80
000900
001F80
000D80
000000
000040
0001E0
0001F0
400330
400330
8003F0
8001F0
C000F0
7FFFF0
3FFFE0
07E000
ENDCHAR
STARTCHAR 06A7
ENCODING 1703
SWIDTH 460 0
DWIDTH 16 0
BBX 14 20 1 -7
BITMAP
0100
0380
0180
0000
0000
0000
0070
0078
00F8
009C
40CC
40FC
807C
8004
8004
8018
C078
61F0
7FC0
1F00
ENDCHAR
STARTCHAR 06A8
ENCODING 1704
SWIDTH 460 0
DWIDTH 16 0
BBX 14 21 1 -8
BITMAP
0100
0380
0180
0240
07E0
0360
0000
0070
0078
00F8
009C
40CC
40FC
807C
8004
8004
8018
C078
61F0
7FC0
1F00
ENDCHAR
STARTCHAR FEDB
ENCODING 1705
SWIDTH 460 0
DWIDTH 16 0
BBX 16 17 0 0
BITMAP
0001
0007
003F
00F8
03E0
0380
0700
0780
03C0
01F0
0078
801C
800E
8007
C003
FFFF
3FFE
ENDCHAR
STARTCHAR FEDB
ENCODING 1706
SWIDTH 576 0
DWIDTH 20 0
BBX 20 15 0 0
BITMAP
003000
00F000
01C000
030000
060000
0C0000
080000
080000
0FFFC0
87FFE0
800030
800010
C00030
FFFFE0
3FFFC0
ENDCHAR
STARTCHAR FEDB
ENCODING 1707
SWIDTH 460 0
DWIDTH 16 0
BBX 16 17 0 0
BITMAP
0001
0007
003F
00FE
03FB
039B
070E
0780
03C0
01F0
0078
801C
800E
8007
C003
FFFF
3FFE
ENDCHAR
STARTCHAR 06AC
ENCODING 1708
SWIDTH 432 0
DWIDTH 15 0
BBX 13 17 1 0
BITMAP
0008
0218
0718
0318
0018
0018
0218
0218
0718
0108
8208
8008
8008
C008
E038
7FF8
7FF0
ENDCHAR
STARTCHAR 06AD
ENCODING 1709
SWIDTH 432 0
DWIDTH 15 0
BBX 13 19 1 0
BITMAP
0400
0E00
0608
0918
1F98
0D98
0018
0018
0218
0218
0718
0108
8208
8008
8008
C008
E038
7FF8
7FF0
ENDCHAR
STARTCHAR 06AE
ENCODING 1710
SWIDTH 432 0
DWIDTH 15 0
BBX 13 24 1 -7
BITMAP
0008
0018
0018
0018
0018
0018
0218
0218
0718
0108
8208
8008
8008
C008
E038
7FF8
7FF0
0000
0240
07E0
0360
0080
01C0
00C0
ENDCHAR
STARTCHAR FEDB
ENCODING 1711
SWIDTH 460 0
DWIDTH 16 0
BBX 16 19 0 0
BITMAP
000C
0038
00E1
0387
063F
00F8
03E0
0380
0700
0780
03C0
01F0
0078
801C
800E
8007
C003
FFFF
3FFE
ENDCHAR
STARTCHAR FEDB
ENCODING 1712
SWIDTH 460 0
DWIDTH 16 0
BBX 16 19 0 0
BITMAP
0006
001C
0071
01C7
033F
00FE
03FB
039B
070E
0780
03C0
01F0
0078
801C
800E
8007
C003
FFFF
3FFE
ENDCHAR
STARTCHAR FEDB
ENCODING 1713
SWIDTH 460 0
DWIDTH 16 0
BBX 16 21 0 0
BITMAP
0080
05C0
0ECC
0638
00E1
0387
063F
00F8
03E0
0380
0700
0780
03C0
01F0
0078
801C
800E
8007
C003
FFFF
3FFE
ENDCHAR
STARTCHAR FEDB
ENCODING 1714
SWIDTH 460 0
DWIDTH 16 0
BBX 16 23 0 -4
BITMAP
0006
001C
0071
01C7
033F
00F8
03E0
0380
0700
0780
03C0
01F0
0078
801C
800E
8007
C003
FFFF
3FFE
0000
0120
03F0
01B0
ENDCHAR
STARTCHAR FEDB
ENCODING 1715
SWIDTH 460 0
DWIDTH 16 0
BBX 16 26 0 -7
BITMAP
000C
0038
00E1
0387
063F
00F8
03E0
0380
0700
0780
03C0
01F0
0078
801C
800E
8007
C003
FFFF
3FFE
0000
0100
0380
0180
0100
0380
0180
ENDCHAR
STARTCHAR FEDB
ENCODING 1716
SWIDTH 460 0
DWIDTH 16 0
BBX 16 23 0 0
BITMAP
0200
0700
0340
02E0
0766
031C
0071
01C7
033F
00F8
03E0
0380
0700
0780
03C0
01F0
0078
801C
800E
8007
C003
FFFF
3FFE
ENDCHAR
STARTCHAR 06B5
ENCODING 1717
SWIDTH 403 0
DWIDTH 14 0
BBX 12 26 1 -4
BITMAP
0110
01B0
00E0
0040
0000
0020
0060
0060
0060
0060
0020
0020
0020
0030
0030
0030
0030
4030
4030
8010
8010
8010
8030
C0E0
7FC0
1E00
ENDCHAR
STARTCHAR 06B6
ENCODING 1718
SWIDTH 403 0
DWIDTH 14 0
BBX 12 25 1 -4
BITMAP
0040
00E0
0060
0000
0020
0060
0060
0060
0060
0020
0020
0020
0030
0030
0030
0030
4030
4030
8010
8010
8010
8030
C0E0
7FC0
1E00
ENDCHAR
STARTCHAR 06B7
ENCODING 1719
SWIDTH 403 0
DWIDTH 14 0
BBX 12 28 1 -4
BITMAP
0080
01C0
00C0
0120
03F0
01B0
0000
0020
0060
0060
0060
0060
0020
0020
0020
0030
0030
0030
0030
4030
4030
8010
8010
8010
8030
C0E0
7FC0
1E00
ENDCHAR
STARTCHAR 06BA
ENCODING 1722
SWIDTH 432 0
DWIDTH 15 0
BBX 13 12 1 -6
BITMAP
0010
0010
2038
4018
4018
8008
8008
C018
C078
F9F0
7FE0
1F00
ENDCHAR
STARTCHAR 06BB
ENCODING 1723
SWIDTH 432 0
DWIDTH 15 0
BBX 13 18 1 -6
BITMAP
0400
0500
0680
0780
0000
0000
0010
0010
2038
4018
4018
8008
8008
C018
C078
F9F0
7FE0
1F00
ENDCHAR
STARTCHAR 06BC
ENCODING 1724
SWIDTH 432 0
DWIDTH 15 0
BBX 13 20 1 -8
BITMAP
0600
0700
0200
0000
0000
0000
0010
0010
2038
4018
4018
8008
8008
C018
C078
F9F0
7FE0
1F60
0360
01C0
ENDCHAR
STARTCHAR 06BD
ENCODING 1725
SWIDTH 432 0
DWIDTH 15 0
BBX 13 18 1 -6
BITMAP
0600
0700
0200
0D80
0FC0
0480
0010
0010
2038
4018
4018
8008
8008
C018
C078
F9F0
7FE0
1F00
ENDCHAR
STARTCHAR 06BE
ENCODING 1726
SWIDTH 316 0
DWIDTH 11 0
BBX 11 7 0 0
BITMAP
0E00
0FC0
13E0
1260
9F20
FFE0
79E0
ENDCHAR
STARTCHAR 06C0
ENCODING 1728
SWIDTH 259 0
DWIDTH 9 0
BBX 8 17 1 -1
BITMAP
38
60
7C
38
20
00
00
20
20
38
3C
5E
87
83
FE
FE
10
ENDCHAR
STARTCHAR 06C1
ENCODING 1729
SWIDTH 345 0
DWIDTH 12 0
BBX 11 11 0 -1
BITMAP
0600
0700
0780
0FC0
0FC0
12E0
1260
1F20
FFE0
FBE0
0040
ENDCHAR
STARTCHAR 06C2
ENCODING 1730
SWIDTH 259 0
DWIDTH 9 0
BBX 8 17 1 -1
BITMAP
38
60
7C
38
20
00
00
20
20
38
3C
5E
87
83
FE
FE
10
ENDCHAR
STARTCHAR 06C3
ENCODING 1731
SWIDTH 259 0
DWIDTH 9 0
BBX 8 15 1 -1
BITMAP
6C
7E
24
00
00
20
20
38
3C
5E
87
83
FE
FE
10
ENDCHAR
STARTCHAR 06C4
ENCODING 1732
SWIDTH 288 0
DWIDTH 10 0
BBX 12 13 -2 -6
BITMAP
00C0
01E0
01E0
0110
0190
01F0
00F0
0030
0760
8DE0
4DC0
3F80
1F00
ENDCHAR
STARTCHAR 06C5
ENCODING 1733
SWIDTH 288 0
DWIDTH 10 0
BBX 12 13 -2 -6
BITMAP
00C0
01E0
01E0
0110
0190
01F0
00F0
0030
07E0
8FE0
41C0
3F80
1F00
ENDCHAR
STARTCHAR 06C6
ENCODING 1734
SWIDTH 288 0
DWIDTH 10 0
BBX 12 18 -2 -6
BITMAP
0220
0360
01C0
0080
0000
00C0
01E0
01E0
0110
0190
01F0
00F0
0030
0060
8060
41C0
3F80
1F00
ENDCHAR
STARTCHAR 06C7
ENCODING 1735
SWIDTH 288 0
DWIDTH 10 0
BBX 12 21 -2 -6
BITMAP
0060
00E0
00A0
00E0
00E0
0180
0300
0000
00C0
01E0
01E0
0110
0190
01F0
00F0
0030
0060
8060
41C0
3F80
1F00
ENDCHAR
STARTCHAR 06C8
ENCODING 1736
SWIDTH 288 0
DWIDTH 10 0
BBX 12 20 -2 -6
BITMAP
0080
0100
0180
0180
0080
0080
0000
00C0
01E0
01E0
0110
0190
01F0
00F0
0030
0060
8060
41C0
3F80
1F00
ENDCHAR
STARTCHAR 06C9
ENCODING 1737
SWIDTH 288 0
DWIDTH 10 0
BBX 12 18 -2 -6
BITMAP
0040
00E0
01B0
0110
0000
00C0
01E0
01E0
0110
0190
01F0
00F0
0030
0060
8060
41C0
3F80
1F00
ENDCHAR
STARTCHAR 06CA
ENCODING 1738
SWIDTH 288 0
DWIDTH 10 0
BBX 12 18 -2 -6
BITMAP
0240
07E0
0360
0000
0000
00C0
01E0
01E0
0110
0190
01F0
00F0
0030
0060
8060
41C0
3F80
1F00
ENDCHAR
STARTCHAR 06CB
ENCODING 1739
SWIDTH 288 0
DWIDTH 10 0
BBX 12 21 -2 -6
BITMAP
0400
0E00
0600
0900
1F80
0D80
0000
0000
00C0
01E0
01E0
0110
0190
01F0
00F0
0030
0060
8060
41C0
3F80
1F00
ENDCHAR
STARTCHAR 06CC
ENCODING 1740
SWIDTH 518 0
DWIDTH 18 0
BBX 16 14 1 -6
BITMAP
0007
001F
207A
20C0
4080
4180
41F8
81FE
803E
800E
C07C
E3F8
7FE0
3F00
ENDCHAR
STARTCHAR 06CD
ENCODING 1741
SWIDTH 518 0
DWIDTH 18 0
BBX 19 14 1 -6
BITMAP
0000E0
0003E0
040F40
041800
081000
183000
383F00
703FC0
D007C0
1001C0
180F80
1C7F00
0FFC00
07E000
ENDCHAR
STARTCHAR 06CE
ENCODING 1742
SWIDTH 518 0
DWIDTH 18 0
BBX 16 16 1 -6
BITMAP
0880
0D80
0707
021F
207A
20C0
4080
4180
41F8
81FE
803E
800E
C07C
E3F8
7FE0
3F00
ENDCHAR
STARTCHAR 06D0
ENCODING 1744
SWIDTH 518 0
DWIDTH 18 0
BBX 16 21 1 -13
BITMAP
0007
001F
207A
20C0
4080
4180
41F8
81FE
803E
800E
C07C
E3F8
7FE0
3F00
0000
0080
01C0
00C0
0080
01C0
00C0
ENDCHAR
STARTCHAR 06D1
ENCODING 1745
SWIDTH 518 0
DWIDTH 18 0
BBX 16 21 1 -13
BITMAP
0007
001F
207A
20C0
4080
4180
41F8
81FE
803E
800E
C07C
E3F8
7FE0
3F00
0000
0480
0FC0
06C0
0100
0380
0180
ENDCHAR
STARTCHAR FEDB
ENCODING 1746
SWIDTH 432 0
DWIDTH 15 0
BBX 14 10 1 -6
BITMAP
0030
0078
1FC8
3F80
6000
C000
8000
8000
FFFC
7FF8
ENDCHAR
STARTCHAR FEDB
ENCODING 1747
SWIDTH 432 0
DWIDTH 15 0
BBX 14 18 1 -6
BITMAP
00E0
01C0
0100
01F0
00C0
0080
0000
0000
0030
0078
1FC8
3F80
6000
C000
8000
8000
FFFC
7FF8
ENDCHAR
STARTCHAR 06D4
ENCODING 1748
SWIDTH 230 0
DWIDTH 8 0
BBX 8 2 0 9
BITMAP
7F
FE
ENDCHAR
STARTCHAR 06D5
ENCODING 1749
SWIDTH 259 0
DWIDTH 9 0
BBX 8 10 1 -1
BITMAP
20
20
38
3C
5E
87
83
FE
FE
10
ENDCHAR
STARTCHAR 06F0
ENCODING 1776
SWIDTH 259 0
DWIDTH 9 0
BBX 4 4 3 5
BITMAP
40
E0
E0
60
ENDCHAR
STARTCHAR 06F1
ENCODING 1777
SWIDTH 345 0
DWIDTH 12 0
BBX 6 16 2 0
BITMAP
40
60
60
70
70
38
38
18
1C
0C
0C
0C
04
04
04
04
ENDCHAR
STARTCHAR 0662
ENCODING 1778
SWIDTH 374 0
DWIDTH 13 0
BBX 9 15 2 0
BITMAP
4080
C080
FB80
7F00
7E00
3000
3800
1800
1800
0C00
0C00
0C00
0C00
0400
0400
ENDCHAR
STARTCHAR char1779
ENCODING 1779
SWIDTH 403 0
DWIDTH 14 0
BBX 12 15 1 0
BITMAP
4110
E1A0
FFE0
7EC0
7800
3800
3800
1800
1800
0C00
0C00
0C00
0C00
0400
0400
ENDCHAR
STARTCHAR char1780
ENCODING 1780
SWIDTH 374 0
DWIDTH 13 0
BBX 11 15 1 0
BITMAP
43C0
E600
F620
7E60
7FC0
3B00
3800
1800
1800
0C00
0C00
0C00
0C00
0400
0400
ENDCHAR
STARTCHAR char1781
ENCODING 1781
SWIDTH 374 0
DWIDTH 13 0
BBX 11 16 1 -1
BITMAP
0800
1E00
1F00
1F80
3BC0
31C0
70C0
60E0
6060
C060
C060
C460
E4E0
FFC0
7BC0
3380
ENDCHAR
STARTCHAR char1782
ENCODING 1782
SWIDTH 374 0
DWIDTH 13 0
BBX 11 15 1 0
BITMAP
0700
1F80
1C00
3000
3020
38E0
1FE0
0F80
1E00
3800
3000
6000
4000
C000
8000
ENDCHAR
STARTCHAR 06F7
ENCODING 1783
SWIDTH 460 0
DWIDTH 16 0
BBX 15 11 2 0
BITMAP
000E
003E
00F8
03E0
3F00
FC00
1F00
03C0
00F0
003C
001E
ENDCHAR
STARTCHAR 06F8
ENCODING 1784
SWIDTH 460 0
DWIDTH 16 0
BBX 12 15 2 0
BITMAP
0400
0400
0400
0E00
0E00
0E00
1B00
1B00
1980
3180
30C0
60E0
E060
C070
4020
ENDCHAR
STARTCHAR 06F9
ENCODING 1785
SWIDTH 374 0
DWIDTH 13 0
BBX 9 15 2 0
BITMAP
3800
7C00
7C00
CC00
8C00
FC00
7600
0600
0600
0600
0300
0300
0380
0180
0100
ENDCHAR
STARTCHAR E600
ENCODING 58880
SWIDTH 230 0
DWIDTH 8 0
BBX 8 20 -1 0
BITMAP
0E
1C
10
1F
5C
B0
04
04
08
0C
0C
0C
0C
0C
04
04
04
04
04
04
ENDCHAR
STARTCHAR E601
ENCODING 58881
SWIDTH 230 0
DWIDTH 8 0
BBX 8 21 -1 0
BITMAP
0E
1C
10
1F
5C
B0
00
08
18
18
18
08
08
08
08
08
08
08
0C
07
07
ENDCHAR
STARTCHAR E602
ENCODING 58882
SWIDTH 230 0
DWIDTH 8 0
BBX 8 21 -1 -7
BITMAP
04
04
08
0C
0C
0C
0C
0C
04
04
04
04
04
04
00
0E
1C
10
1F
5C
B0
ENDCHAR
STARTCHAR E603
ENCODING 58883
SWIDTH 230 0
DWIDTH 8 0
BBX 8 21 -1 -7
BITMAP
08
18
18
18
08
08
08
08
08
08
08
0C
07
07
00
0E
1C
10
1F
5C
B0
ENDCHAR
STARTCHAR E604
ENCODING 58884
SWIDTH 86 0
DWIDTH 3 0
BBX 8 17 0 0
BITMAP
0E
1C
10
5F
4C
88
C0
C0
C0
C0
C0
40
40
40
40
40
40
ENDCHAR
STARTCHAR E605
ENCODING 58885
SWIDTH 144 0
DWIDTH 5 0
BBX 8 17 0 0
BITMAP
0E
1C
10
5F
CC
C8
C0
40
40
40
40
40
40
40
60
38
38
ENDCHAR
STARTCHAR E606
ENCODING 58886
SWIDTH 345 0
DWIDTH 12 0
BBX 17 18 -2 -6
BITMAP
000700
000E00
000800
000F80
000600
004400
00E000
01B000
013000
01B000
01F000
00F000
003000
003000
806000
61C000
3F8000
0F0000
ENDCHAR
STARTCHAR E607
ENCODING 58887
SWIDTH 345 0
DWIDTH 12 0
BBX 17 18 -2 -6
BITMAP
000700
000E00
000800
000F80
000600
00C400
01E000
01E000
033000
03B000
03F800
01F800
003000
006000
80E000
41C000
3F8000
1E0000
ENDCHAR
STARTCHAR E608
ENCODING 58888
SWIDTH 460 0
DWIDTH 16 0
BBX 21 20 1 -6
BITMAP
000070
0000E0
000080
0000F8
000060
000040
000700
001F00
207A00
20C000
408000
418000
41F800
81FE00
803E00
800E00
C07C00
E3F800
7FE000
3F0000
ENDCHAR
STARTCHAR E609
ENCODING 58889
SWIDTH 489 0
DWIDTH 17 0
BBX 22 16 1 -8
BITMAP
000038
000070
000040
00007C
000030
000020
401F80
407F80
406000
80F000
80FC00
C07C00
E03C00
F1F800
7FE000
1F8000
ENDCHAR
STARTCHAR E60A
ENCODING 58890
SWIDTH 230 0
DWIDTH 8 0
BBX 11 13 -1 0
BITMAP
01C0
0380
0200
03E0
0180
0500
0400
0400
0600
0600
0600
7E00
7C00
ENDCHAR
STARTCHAR E60B
ENCODING 58891
SWIDTH 288 0
DWIDTH 10 0
BBX 11 13 0 0
BITMAP
01C0
0380
0200
03E0
0180
0500
0400
0400
0600
0200
0600
FFC0
FFC0
ENDCHAR
STARTCHAR E60C
ENCODING 58892
SWIDTH 489 0
DWIDTH 17 0
BBX 15 13 1 -3
BITMAP
06C0
07E0
0240
0004
8004
8002
8002
C00E
FFFC
3FF8
06C0
06C0
0380
ENDCHAR
STARTCHAR E60D
ENCODING 58893
SWIDTH 547 0
DWIDTH 19 0
BBX 18 14 1 -4
BITMAP
048000
07C000
06C000
024000
000200
800700
800300
800100
E00FC0
7FFFC0
3FF000
06C000
06C000
038000
ENDCHAR
STARTCHAR E60E
ENCODING 58894
SWIDTH 230 0
DWIDTH 8 0
BBX 8 16 0 -3
BITMAP
6C
7E
22
00
00
00
06
06
07
07
03
FF
FE
6C
6C
38
ENDCHAR
STARTCHAR E60F
ENCODING 58895
SWIDTH 259 0
DWIDTH 9 0
BBX 9 16 0 -3
BITMAP
6800
7C00
2400
0000
0000
0000
0400
0400
0600
0600
0200
FF80
FF80
6C00
6C00
3800
ENDCHAR
STARTCHAR E610
ENCODING 58896
SWIDTH 489 0
DWIDTH 17 0
BBX 15 13 1 0
BITMAP
0480
0FC0
06C0
0100
0380
0180
0004
8004
8002
8002
C00E
FFFC
3FF8
ENDCHAR
STARTCHAR E611
ENCODING 58897
SWIDTH 547 0
DWIDTH 19 0
BBX 18 13 1 -1
BITMAP
024000
07E000
036000
008000
01C000
00C000
000200
800700
800300
800100
E00FC0
7FFFC0
3FF000
ENDCHAR
STARTCHAR E612
ENCODING 58898
SWIDTH 230 0
DWIDTH 8 0
BBX 8 15 0 0
BITMAP
24
7E
36
08
1C
0C
00
00
06
06
07
07
03
FF
FE
ENDCHAR
STARTCHAR E613
ENCODING 58899
SWIDTH 259 0
DWIDTH 9 0
BBX 9 15 0 0
BITMAP
2400
7E00
3600
0800
1C00
0C00
0000
0000
0400
0400
0600
0600
0200
FF80
FF80
ENDCHAR
STARTCHAR E614
ENCODING 58900
SWIDTH 403 0
DWIDTH 14 0
BBX 13 24 1 -9
BITMAP
0380
0700
0400
07C0
0300
0200
0000
3C30
3FE0
7FE0
1C00
3000
2000
2000
4000
4000
4000
4000
4000
6000
6000
3838
1FE0
0F80
ENDCHAR
STARTCHAR E615
ENCODING 58901
SWIDTH 403 0
DWIDTH 14 0
BBX 13 22 1 -9
BITMAP
0700
0E00
0800
0F80
0600
0400
0000
7FC0
FFC0
9D00
2100
41F8
40F8
8000
8000
8000
8000
8000
C000
7018
3FE0
1F80
ENDCHAR
STARTCHAR E616
ENCODING 58902
SWIDTH 460 0
DWIDTH 16 0
BBX 15 14 0 0
BITMAP
0700
0E00
0800
0F80
0600
0400
0000
1E00
3F80
23C0
00F0
007C
FFFE
FFFE
ENDCHAR
STARTCHAR E617
ENCODING 58903
SWIDTH 403 0
DWIDTH 14 0
BBX 14 14 0 0
BITMAP
0E00
1C00
1000
1F00
0C00
0800
0000
3C00
7F00
4780
01E0
00F0
FFFC
FFFC
ENDCHAR
STARTCHAR E618
ENCODING 58904
SWIDTH 403 0
DWIDTH 14 0
BBX 13 24 1 -9
BITMAP
0400
0E00
0600
0400
0E00
0600
0000
3C30
3FE0
7FE0
1C00
3000
2000
2000
4000
4000
4000
4000
4000
6000
6000
3838
1FE0
0F80
ENDCHAR
STARTCHAR E619
ENCODING 58905
SWIDTH 403 0
DWIDTH 14 0
BBX 13 22 1 -9
BITMAP
0400
0E00
0600
0400
0E00
0600
0000
7FC0
FFC0
9D00
2100
41F8
40F8
8000
8000
8000
8000
8000
C000
7018
3FE0
1F80
ENDCHAR
STARTCHAR E61A
ENCODING 58906
SWIDTH 460 0
DWIDTH 16 0
BBX 15 14 0 0
BITMAP
0400
0E00
0600
0400
0E00
0600
0000
1E00
3F80
23C0
00F0
007C
FFFE
FFFE
ENDCHAR
STARTCHAR E61B
ENCODING 58907
SWIDTH 403 0
DWIDTH 14 0
BBX 14 14 0 0
BITMAP
0800
1C00
0C00
0800
1C00
0C00
0000
3C00
7F00
4780
01E0
00F0
FFFC
FFFC
ENDCHAR
STARTCHAR E61C
ENCODING 58908
SWIDTH 403 0
DWIDTH 14 0
BBX 13 24 1 -9
BITMAP
0200
0700
0300
0480
0FC0
06C0
0000
3C30
3FE0
7FE0
1C00
3000
2000
2000
4000
4000
4000
4000
4000
6000
6000
3838
1FE0
0F80
ENDCHAR
STARTCHAR E61D
ENCODING 58909
SWIDTH 403 0
DWIDTH 14 0
BBX 13 22 1 -9
BITMAP
0200
0700
0300
0480
0FC0
06C0
0000
7FC0
FFC0
9D00
2100
41F8
40F8
8000
8000
8000
8000
8000
C000
7018
3FE0
1F80
ENDCHAR
STARTCHAR E61E
ENCODING 58910
SWIDTH 460 0
DWIDTH 16 0
BBX 15 14 0 0
BITMAP
0200
0700
0300
0480
0FC0
06C0
0000
1E00
3F80
23C0
00F0
007C
FFFE
FFFE
ENDCHAR
STARTCHAR E61F
ENCODING 58911
SWIDTH 403 0
DWIDTH 14 0
BBX 14 14 0 0
BITMAP
0400
0E00
0600
0900
1F80
0D80
0000
3C00
7F00
4780
01E0
00F0
FFFC
FFFC
ENDCHAR
STARTCHAR E620
ENCODING 58912
SWIDTH 316 0
DWIDTH 11 0
BBX 8 13 2 -2
BITMAP
04
06
06
02
03
01
81
CF
FF
7E
1B
1B
0E
ENDCHAR
STARTCHAR E621
ENCODING 58913
SWIDTH 316 0
DWIDTH 11 0
BBX 10 14 1 -3
BITMAP
0200
0200
0600
0300
0300
0300
8100
8180
CFC0
FFC0
7F00
0D80
0D80
0700
ENDCHAR
STARTCHAR E622
ENCODING 58914
SWIDTH 316 0
DWIDTH 11 0
BBX 8 14 2 -4
BITMAP
04
06
06
02
03
01
81
CF
FF
7C
00
04
0E
06
ENDCHAR
STARTCHAR E623
ENCODING 58915
SWIDTH 316 0
DWIDTH 11 0
BBX 10 15 1 -5
BITMAP
0200
0200
0600
0300
0300
0300
8100
8180
CFC0
FFC0
7C00
0000
0200
0700
0300
ENDCHAR
STARTCHAR E624
ENCODING 58916
SWIDTH 316 0
DWIDTH 11 0
BBX 8 19 2 -4
BITMAP
10
14
1A
1E
00
04
06
06
02
03
01
81
CF
FF
7C
00
04
0E
06
ENDCHAR
STARTCHAR E625
ENCODING 58917
SWIDTH 316 0
DWIDTH 11 0
BBX 10 20 1 -5
BITMAP
0800
0A00
0D00
0F00
0000
0200
0200
0600
0300
0300
0300
8100
8180
CFC0
FFC0
7C00
0000
0200
0700
0300
ENDCHAR
STARTCHAR E626
ENCODING 58918
SWIDTH 316 0
DWIDTH 11 0
BBX 8 19 2 0
BITMAP
24
7E
36
08
1C
0C
00
00
00
04
06
06
02
03
01
81
CF
FF
7C
ENDCHAR
STARTCHAR E627
ENCODING 58919
SWIDTH 316 0
DWIDTH 11 0
BBX 10 19 1 -1
BITMAP
2400
7E00
3600
0800
1C00
0C00
0000
0000
0200
0200
0600
0300
0300
0300
8100
8180
CFC0
FFC0
7C00
ENDCHAR
STARTCHAR E628
ENCODING 58920
SWIDTH 316 0
DWIDTH 11 0
BBX 8 19 2 0
BITMAP
24
7E
36
24
7E
36
00
00
00
04
06
06
02
03
01
81
CF
FF
7C
ENDCHAR
STARTCHAR E629
ENCODING 58921
SWIDTH 316 0
DWIDTH 11 0
BBX 10 19 1 -1
BITMAP
2400
7E00
3600
2400
7E00
3600
0000
0000
0200
0200
0600
0300
0300
0300
8100
8180
CFC0
FFC0
7C00
ENDCHAR
STARTCHAR E62A
ENCODING 58922
SWIDTH 259 0
DWIDTH 9 0
BBX 11 17 -2 -5
BITMAP
0440
06C0
0380
0100
0000
0000
0080
00C0
00C0
0060
0060
0060
0060
00C0
8180
7F00
1E00
ENDCHAR
STARTCHAR E62B
ENCODING 58923
SWIDTH 316 0
DWIDTH 11 0
BBX 13 17 -2 -5
BITMAP
0440
06C0
0380
0100
0000
0000
0080
01C0
00C0
0060
0078
0078
0060
00C0
83C0
7F00
1C00
ENDCHAR
STARTCHAR E62C
ENCODING 58924
SWIDTH 259 0
DWIDTH 9 0
BBX 12 12 -2 -6
BITMAP
0080
00C0
00C0
0060
0060
0060
0060
00C0
81E0
7FB0
1FB0
00E0
ENDCHAR
STARTCHAR E62D
ENCODING 58925
SWIDTH 316 0
DWIDTH 11 0
BBX 13 12 -2 -6
BITMAP
0080
01C0
00C0
0060
0078
0078
0060
00C0
83C0
7F60
1F60
01C0
ENDCHAR
STARTCHAR E62E
ENCODING 58926
SWIDTH 259 0
DWIDTH 9 0
BBX 12 12 -2 -6
BITMAP
0080
00C0
00C0
0060
0060
0060
0060
00C0
8180
7F20
1E70
0030
ENDCHAR
STARTCHAR E62F
ENCODING 58927
SWIDTH 316 0
DWIDTH 11 0
BBX 13 12 -2 -6
BITMAP
0080
01C0
00C0
0060
0078
0078
0060
00C0
83C0
7F20
1C70
0030
ENDCHAR
STARTCHAR E630
ENCODING 58928
SWIDTH 259 0
DWIDTH 9 0
BBX 11 16 -2 -10
BITMAP
0080
00C0
00C0
0060
0060
0060
0060
00C0
8180
7F00
1E00
0000
1100
1B00
0E00
0400
ENDCHAR
STARTCHAR E631
ENCODING 58929
SWIDTH 316 0
DWIDTH 11 0
BBX 13 16 -2 -10
BITMAP
0080
01C0
00C0
0060
0078
0078
0060
00C0
83C0
7F00
1C00
0000
1100
1B00
0E00
0400
ENDCHAR
STARTCHAR E632
ENCODING 58930
SWIDTH 259 0
DWIDTH 9 0
BBX 12 12 -2 -6
BITMAP
0080
00C0
00C0
0060
0860
1C60
0C60
00C0
8180
7F20
1E70
0030
ENDCHAR
STARTCHAR E633
ENCODING 58931
SWIDTH 316 0
DWIDTH 11 0
BBX 13 12 -2 -6
BITMAP
0080
01C0
00C0
0060
0878
1C78
0C60
00C0
83C0
7F20
1C70
0030
ENDCHAR
STARTCHAR E634
ENCODING 58932
SWIDTH 259 0
DWIDTH 9 0
BBX 12 18 -2 -5
BITMAP
0120
03F0
01B0
0000
0000
0000
0000
0080
00C0
00C0
0060
0060
0060
0060
00C0
8180
7F00
1E00
ENDCHAR
STARTCHAR E635
ENCODING 58933
SWIDTH 316 0
DWIDTH 11 0
BBX 13 18 -2 -5
BITMAP
0120
03F0
01B0
0000
0000
0000
0000
0080
01C0
00C0
0060
0078
0078
0060
00C0
83C0
7F00
1C00
ENDCHAR
STARTCHAR E636
ENCODING 58934
SWIDTH 259 0
DWIDTH 9 0
BBX 11 21 -2 -5
BITMAP
0480
0FC0
06C0
0480
0FC0
06C0
0000
0000
0000
0000
0080
00C0
00C0
0060
0060
0060
0060
00C0
8180
7F00
1E00
ENDCHAR
STARTCHAR E637
ENCODING 58935
SWIDTH 316 0
DWIDTH 11 0
BBX 13 21 -2 -5
BITMAP
0480
0FC0
06C0
0480
0FC0
06C0
0000
0000
0000
0000
0080
01C0
00C0
0060
0078
0078
0060
00C0
83C0
7F00
1C00
ENDCHAR
STARTCHAR E638
ENCODING 58936
SWIDTH 720 0
DWIDTH 25 0
BBX 24 17 1 -6
BITMAP
000080
0001C0
0000C0
000000
000000
000042
001046
003047
4038C7
401FFE
401FFE
801800
801880
8031C0
E0F0C0
7FC000
3F0000
ENDCHAR
STARTCHAR E639
ENCODING 58937
SWIDTH 748 0
DWIDTH 26 0
BBX 25 17 1 -6
BITMAP
00008000
0001C000
0000C000
00000000
00000000
00004200
00104600
00304600
4038C700
401FFF80
401FFF80
80080000
80188000
8031C000
E0F0C000
7FC00000
3F000000
ENDCHAR
STARTCHAR E63A
ENCODING 58938
SWIDTH 518 0
DWIDTH 18 0
BBX 17 15 0 -4
BITMAP
004000
00E000
006000
000000
000000
102180
102180
102180
307380
FFFF80
FFFF00
000000
004000
00E000
006000
ENDCHAR
STARTCHAR E63B
ENCODING 58939
SWIDTH 547 0
DWIDTH 19 0
BBX 19 15 0 -4
BITMAP
004000
00E000
006000
000000
000000
102180
102180
102180
307380
FFFFE0
FFFFE0
000000
004000
00E000
006000
ENDCHAR
STARTCHAR E63C
ENCODING 58940
SWIDTH 720 0
DWIDTH 25 0
BBX 24 13 1 -7
BITMAP
000042
001046
003047
4038C7
401FFE
401FFE
801800
801920
8033F0
E0F1B0
7FC040
3F00E0
000060
ENDCHAR
STARTCHAR E63D
ENCODING 58941
SWIDTH 748 0
DWIDTH 26 0
BBX 25 13 1 -7
BITMAP
00004200
00104600
00304600
4038C700
401FFF80
401FFF80
80080000
80192000
8033F000
E0F1B000
7FC04000
3F00E000
00006000
ENDCHAR
STARTCHAR E63E
ENCODING 58942
SWIDTH 518 0
DWIDTH 18 0
BBX 17 13 0 -7
BITMAP
102180
102180
102180
307380
FFFF80
FFFF00
000000
004800
00FC00
006C00
001000
003800
001800
ENDCHAR
STARTCHAR E63F
ENCODING 58943
SWIDTH 547 0
DWIDTH 19 0
BBX 19 13 0 -7
BITMAP
102180
102180
102180
307380
FFFFE0
FFFFE0
000000
004800
00FC00
006C00
001000
003800
001800
ENDCHAR
STARTCHAR E640
ENCODING 58944
SWIDTH 720 0
DWIDTH 25 0
BBX 24 22 1 -7
BITMAP
000080
0001C0
0000C0
000000
000120
0003F0
0001B0
000000
000000
000042
001046
003047
4038C7
401FFE
401FFE
801800
801920
8033F0
E0F1B0
7FC040
3F00E0
000060
ENDCHAR
STARTCHAR E641
ENCODING 58945
SWIDTH 748 0
DWIDTH 26 0
BBX 25 22 1 -7
BITMAP
00008000
0001C000
0000C000
00000000
00012000
0003F000
0001B000
00000000
00000000
00004200
00104600
00304600
4038C700
401FFF80
401FFF80
80080000
80192000
8033F000
E0F1B000
7FC04000
3F00E000
00006000
ENDCHAR
STARTCHAR E642
ENCODING 58946
SWIDTH 518 0
DWIDTH 18 0
BBX 17 22 0 -7
BITMAP
002000
007000
003000
000000
004800
00FC00
006C00
000000
000000
102180
102180
102180
307380
FFFF80
FFFF00
000000
004800
00FC00
006C00
001000
003800
001800
ENDCHAR
STARTCHAR E643
ENCODING 58947
SWIDTH 547 0
DWIDTH 19 0
BBX 19 22 0 -7
BITMAP
002000
007000
003000
000000
004800
00FC00
006C00
000000
000000
102180
102180
102180
307380
FFFFE0
FFFFE0
000000
004800
00FC00
006C00
001000
003800
001800
ENDCHAR
STARTCHAR E644
ENCODING 58948
SWIDTH 864 0
DWIDTH 30 0
BBX 29 13 1 -6
BITMAP
00000780
00000FE0
00103DF0
00307078
4019C038
401FFFF0
400FFFE0
80080000
80082400
C0107E00
E0F03600
7FE00000
1F000000
ENDCHAR
STARTCHAR E645
ENCODING 58949
SWIDTH 921 0
DWIDTH 32 0
BBX 31 13 1 -6
BITMAP
00000780
00000FE0
00103DF0
00307078
4019C038
401FFFFE
400FFFF6
80080000
80081200
C0103F00
E0F01B00
7FE00000
1F000000
ENDCHAR
STARTCHAR E646
ENCODING 58950
SWIDTH 691 0
DWIDTH 24 0
BBX 22 11 0 -4
BITMAP
0001C0
1007F0
101E78
10381C
30700C
FFFFFC
FFFFF8
000000
000480
000FC0
0006C0
ENDCHAR
STARTCHAR E647
ENCODING 58951
SWIDTH 720 0
DWIDTH 25 0
BBX 25 11 0 -4
BITMAP
0001C000
1007F000
101E7800
10381C00
30700C00
FFFFFF80
FFFFFF80
00000000
00048000
000FC000
0006C000
ENDCHAR
STARTCHAR E648
ENCODING 58952
SWIDTH 864 0
DWIDTH 30 0
BBX 29 20 1 -6
BITMAP
00000400
00000E00
00000600
00000900
00001F80
00000D80
00000000
00000780
00000FE0
00103DF0
00307078
4019C038
401FFFF0
400FFFE0
80080000
80080000
C0100000
E0F00000
7FE00000
1F000000
ENDCHAR
STARTCHAR E649
ENCODING 58953
SWIDTH 921 0
DWIDTH 32 0
BBX 31 20 1 -6
BITMAP
00000400
00000E00
00000600
00000900
00001F80
00000D80
00000000
00000780
00000FE0
00103DF0
00307078
4019C038
401FFFFE
400FFFF6
80080000
80080000
C0100000
E0F00000
7FE00000
1F000000
ENDCHAR
STARTCHAR E64A
ENCODING 58954
SWIDTH 691 0
DWIDTH 24 0
BBX 22 14 0 0
BITMAP
000200
000700
000300
000480
000FC0
0006C0
000000
0001C0
1007F0
101E78
10381C
30700C
FFFFFC
FFFFF8
ENDCHAR
STARTCHAR E64B
ENCODING 58955
SWIDTH 720 0
DWIDTH 25 0
BBX 25 14 0 0
BITMAP
00020000
00070000
00030000
00048000
000FC000
0006C000
00000000
0001C000
1007F000
101E7800
10381C00
30700C00
FFFFFF80
FFFFFF80
ENDCHAR
STARTCHAR E64C
ENCODING 58956
SWIDTH 518 0
DWIDTH 18 0
BBX 16 17 1 0
BITMAP
0800
0800
0C00
0E20
0C70
0C30
0C48
0CFC
046C
0400
0478
05FE
059E
0707
1E07
FFFE
7FFE
ENDCHAR
STARTCHAR E64D
ENCODING 58957
SWIDTH 547 0
DWIDTH 19 0
BBX 18 17 1 0
BITMAP
080000
080000
0C0000
0E2000
0C7000
0C3000
0C4800
0CFC00
046C00
040000
047800
05FE00
059E00
070700
1E0700
FFFFC0
7FFFC0
ENDCHAR
STARTCHAR E64E
ENCODING 58958
SWIDTH 460 0
DWIDTH 16 0
BBX 14 17 0 0
BITMAP
2000
2000
2000
3880
31C0
30C0
3120
13F0
11B0
1000
11E0
13F8
1678
1C1C
381C
FFFC
FFF8
ENDCHAR
STARTCHAR E64F
ENCODING 58959
SWIDTH 460 0
DWIDTH 16 0
BBX 16 17 0 0
BITMAP
2000
2000
2000
3880
31C0
30C0
3120
13F0
11B0
1000
11E0
13F8
1678
1C1C
381C
FFFF
FFFF
ENDCHAR
STARTCHAR E650
ENCODING 58960
SWIDTH 374 0
DWIDTH 13 0
BBX 13 27 1 -11
BITMAP
0800
1C00
0C00
1200
3F00
1B00
0000
1C00
3E00
7100
6000
7180
7F80
3F00
1C00
3000
6000
4000
8000
8000
8000
8000
8000
8000
6018
7FE0
1F80
ENDCHAR
STARTCHAR E651
ENCODING 58961
SWIDTH 374 0
DWIDTH 13 0
BBX 13 26 0 -10
BITMAP
0800
1C00
0C00
1200
3F00
1B00
0000
0000
0400
1F00
3F00
3F00
1E00
1F80
33F8
20F8
4000
4000
C000
8000
8000
C000
C000
7000
3FC0
0F00
ENDCHAR
STARTCHAR E652
ENCODING 58962
SWIDTH 345 0
DWIDTH 12 0
BBX 11 16 0 0
BITMAP
0800
1C00
0C00
1200
3F00
1B00
0000
0E00
1F00
3980
7000
7000
7000
3C20
FFE0
FFC0
ENDCHAR
STARTCHAR E653
ENCODING 58963
SWIDTH 316 0
DWIDTH 11 0
BBX 11 15 0 0
BITMAP
0800
1C00
0C00
1200
3F00
1B00
0000
1E00
3F00
3F00
1F00
0F00
3F80
FFE0
E1E0
ENDCHAR
STARTCHAR E654
ENCODING 58964
SWIDTH 633 0
DWIDTH 22 0
BBX 20 11 1 -1
BITMAP
000040
0001E0
0001F0
400330
400330
8003F0
8001F0
C000F0
7FFFF0
3FFFE0
07E000
ENDCHAR
STARTCHAR E655
ENCODING 58965
SWIDTH 662 0
DWIDTH 23 0
BBX 22 10 1 -1
BITMAP
0000C0
0001E0
000370
800230
800390
8003F0
C001F0
FFFFFC
7FFFFC
3FFFC0
ENDCHAR
STARTCHAR E656
ENCODING 58966
SWIDTH 288 0
DWIDTH 10 0
BBX 9 10 0 0
BITMAP
0600
0F00
0B00
1980
1880
1F80
0F80
0780
FF80
FF00
ENDCHAR
STARTCHAR E657
ENCODING 58967
SWIDTH 288 0
DWIDTH 10 0
BBX 10 10 0 0
BITMAP
0C00
1C00
3400
2200
3200
3E00
3E00
0F00
FFC0
FFC0
ENDCHAR
STARTCHAR E658
ENCODING 58968
SWIDTH 633 0
DWIDTH 22 0
BBX 21 14 1 -4
BITMAP
000040
0001E0
0001F0
400330
400330
8003F0
8001F0
C000F0
7FFFF0
3FFFE0
07E000
000010
000038
000018
ENDCHAR
STARTCHAR E659
ENCODING 58969
SWIDTH 662 0
DWIDTH 23 0
BBX 22 13 1 -4
BITMAP
0000C0
0001E0
000370
800230
800390
8003F0
C001F0
FFFFFC
7FFFFC
3FFFC0
000010
000038
000018
ENDCHAR
STARTCHAR E65A
ENCODING 58970
SWIDTH 288 0
DWIDTH 10 0
BBX 10 13 0 -3
BITMAP
0600
0F00
0B00
1980
1880
1F80
0F80
0780
FF80
FF00
0080
01C0
00C0
ENDCHAR
STARTCHAR E65B
ENCODING 58971
SWIDTH 288 0
DWIDTH 10 0
BBX 10 13 0 -3
BITMAP
0C00
1C00
3400
2200
3200
3E00
3E00
0F00
FFC0
FFC0
0200
0700
0300
ENDCHAR
STARTCHAR E65C
ENCODING 58972
SWIDTH 633 0
DWIDTH 22 0
BBX 21 19 1 -5
BITMAP
000200
000700
000300
000000
000040
0001E0
0001F0
400330
400330
8003F0
8001F0
C000F0
7FFFF0
3FFFE0
07E000
000000
001000
003800
001800
ENDCHAR
STARTCHAR E65D
ENCODING 58973
SWIDTH 662 0
DWIDTH 23 0
BBX 22 18 1 -5
BITMAP
000100
000380
000180
000000
0000C0
0001E0
000370
800230
800390
8003F0
C001F0
FFFFFC
7FFFFC
3FFFC0
000000
002000
007000
003000
ENDCHAR
STARTCHAR E65E
ENCODING 58974
SWIDTH 288 0
DWIDTH 10 0
BBX 10 18 0 -4
BITMAP
0800
1C00
0C00
0000
0600
0F00
0B00
1980
1880
1F80
0F80
0780
FF80
FF00
0000
4000
E000
6000
ENDCHAR
STARTCHAR E65F
ENCODING 58975
SWIDTH 288 0
DWIDTH 10 0
BBX 10 18 0 -4
BITMAP
1000
3800
1800
0000
0C00
1C00
3400
2200
3200
3E00
3E00
0F00
FFC0
FFC0
0000
4000
E000
6000
ENDCHAR
STARTCHAR E660
ENCODING 58976
SWIDTH 633 0
DWIDTH 22 0
BBX 22 17 1 -7
BITMAP
000040
0001E0
0001F0
400330
400330
8003F0
8001F0
C000F0
7FFFF0
3FFFE0
07E000
000048
0000FC
00006C
000010
000038
000018
ENDCHAR
STARTCHAR E661
ENCODING 58977
SWIDTH 662 0
DWIDTH 23 0
BBX 22 17 1 -8
BITMAP
0000C0
0001E0
000370
800230
800390
8003F0
C001F0
FFFFFC
7FFFFC
3FFFC0
000000
000024
00007E
000036
000008
00001C
00000C
ENDCHAR
STARTCHAR E662
ENCODING 58978
SWIDTH 288 0
DWIDTH 10 0
BBX 11 17 0 -7
BITMAP
0600
0F00
0B00
1980
1880
1F80
0F80
0780
FF80
FF00
0000
0240
07E0
0360
0080
01C0
00C0
ENDCHAR
STARTCHAR E663
ENCODING 58979
SWIDTH 288 0
DWIDTH 10 0
BBX 10 17 0 -7
BITMAP
0C00
1C00
3400
2200
3200
3E00
3E00
0F00
FFC0
FFC0
0000
0480
0FC0
06C0
0100
0380
0180
ENDCHAR
STARTCHAR E664
ENCODING 58980
SWIDTH 460 0
DWIDTH 16 0
BBX 14 20 1 -7
BITMAP
0100
0380
0180
0000
0000
0000
0070
0078
00F8
009C
40CC
40FC
807C
8004
8004
8018
C078
61F0
7FC0
1F00
ENDCHAR
STARTCHAR E665
ENCODING 58981
SWIDTH 460 0
DWIDTH 16 0
BBX 16 20 1 -7
BITMAP
0100
0380
0180
0000
0000
0000
0070
0078
00F8
009C
40CC
40FF
807F
800C
800C
8018
C078
61F0
7FC0
1F00
ENDCHAR
STARTCHAR E666
ENCODING 58982
SWIDTH 288 0
DWIDTH 10 0
BBX 9 15 0 0
BITMAP
1000
3800
1800
0000
0000
0600
0F00
0B00
1980
1880
1F80
0F80
0780
FF80
FF00
ENDCHAR
STARTCHAR E667
ENCODING 58983
SWIDTH 288 0
DWIDTH 10 0
BBX 10 15 0 0
BITMAP
2000
7000
3000
0000
0000
0C00
1C00
3400
2200
3200
3E00
3E00
0F00
FFC0
FFC0
ENDCHAR
STARTCHAR E668
ENCODING 58984
SWIDTH 460 0
DWIDTH 16 0
BBX 14 21 1 -8
BITMAP
0100
0380
0180
0240
07E0
0360
0000
0070
0078
00F8
009C
40CC
40FC
807C
8004
8004
8018
C078
61F0
7FC0
1F00
ENDCHAR
STARTCHAR E669
ENCODING 58985
SWIDTH 460 0
DWIDTH 16 0
BBX 16 21 1 -8
BITMAP
0100
0380
0180
0240
07E0
0360
0000
0070
0078
00F8
009C
40CC
40FF
807F
800C
800C
8018
C078
61F0
7FC0
1F00
ENDCHAR
STARTCHAR E66A
ENCODING 58986
SWIDTH 288 0
DWIDTH 10 0
BBX 9 17 0 0
BITMAP
1000
3800
1800
2400
7E00
3600
0000
0600
0F00
0B00
1980
1880
1F80
0F80
0780
FF80
FF00
ENDCHAR
STARTCHAR E66B
ENCODING 58987
SWIDTH 288 0
DWIDTH 10 0
BBX 10 17 0 0
BITMAP
2000
7000
3000
4800
FC00
6C00
0000
0C00
1C00
3400
2200
3200
3E00
3E00
0F00
FFC0
FFC0
ENDCHAR
STARTCHAR FEDB
ENCODING 58988
SWIDTH 576 0
DWIDTH 20 0
BBX 20 15 0 0
BITMAP
003000
00F000
01C000
030000
060000
0C0000
080000
080000
0FFFC0
87FFE0
800030
800010
C00030
FFFFE0
3FFFC0
ENDCHAR
STARTCHAR FEDB
ENCODING 58989
SWIDTH 633 0
DWIDTH 22 0
BBX 22 15 0 0
BITMAP
003000
00F000
01C000
030000
060000
0C0000
080000
080000
0FFFC0
87FFE0
800030
800010
C00030
FFFFFC
3FFFFC
ENDCHAR
STARTCHAR FEDB
ENCODING 58990
SWIDTH 547 0
DWIDTH 19 0
BBX 18 15 0 0
BITMAP
00C000
03C000
070000
0C0000
180000
300000
200000
200000
3FFF00
1FFF80
0000C0
000040
0000C0
FFFF80
FFFF00
ENDCHAR
STARTCHAR FEDB
ENCODING 58991
SWIDTH 576 0
DWIDTH 20 0
BBX 20 15 0 0
BITMAP
00C000
03C000
070000
0C0000
180000
300000
200000
200000
3FFF00
1FFF80
0000C0
000040
0000C0
FFFFF0
FFFFF0
ENDCHAR
STARTCHAR FEDB
ENCODING 58992
SWIDTH 460 0
DWIDTH 16 0
BBX 16 17 0 0
BITMAP
0001
0007
003F
00FE
03FB
039B
070E
0780
03C0
01F0
0078
801C
800E
8007
C003
FFFF
3FFE
ENDCHAR
STARTCHAR FEDB
ENCODING 58993
SWIDTH 547 0
DWIDTH 19 0
BBX 19 17 0 0
BITMAP
000100
000700
003F00
00FE00
03FB00
039B00
070E00
078000
03C000
01F000
007800
801C00
800E00
800700
C00380
FFFFE0
3FFFE0
ENDCHAR
STARTCHAR FEDB
ENCODING 58994
SWIDTH 288 0
DWIDTH 10 0
BBX 11 17 -1 0
BITMAP
0020
00E0
07E0
1FC0
7F60
7360
E1C0
F000
7800
3E00
0F00
0380
01C0
00E0
0060
7FE0
7FE0
ENDCHAR
STARTCHAR FEDC
ENCODING 58995
SWIDTH 374 0
DWIDTH 13 0
BBX 14 17 -1 0
BITMAP
0020
00E0
07E0
1FC0
7F60
7360
E1C0
F000
7800
3E00
0F00
0380
01C0
00E0
0070
7FFC
7FFC
ENDCHAR
STARTCHAR E674
ENCODING 58996
SWIDTH 432 0
DWIDTH 15 0
BBX 13 17 1 0
BITMAP
0008
0218
0718
0318
0018
0018
0218
0218
0718
0108
8208
8008
8008
C008
E038
7FF8
7FF0
ENDCHAR
STARTCHAR E675
ENCODING 58997
SWIDTH 460 0
DWIDTH 16 0
BBX 15 17 1 0
BITMAP
0008
0218
0738
0318
0018
0018
0218
0218
0718
0118
8208
8008
8008
C008
E038
7FFE
7FF6
ENDCHAR
STARTCHAR E676
ENCODING 58998
SWIDTH 316 0
DWIDTH 11 0
BBX 11 21 -1 0
BITMAP
0800
1C00
0C00
0000
0020
00E0
07E0
1F00
7C00
7000
E000
F000
7800
3E00
0F00
0380
01C0
00E0
0060
7FE0
7FE0
ENDCHAR
STARTCHAR E677
ENCODING 58999
SWIDTH 374 0
DWIDTH 13 0
BBX 14 21 -1 0
BITMAP
0800
1C00
0C00
0000
0020
00E0
07E0
1F80
7C00
7000
E000
F000
7800
3E00
0F00
0380
01C0
00E0
0070
7FFC
7FFC
ENDCHAR
STARTCHAR E678
ENCODING 59000
SWIDTH 432 0
DWIDTH 15 0
BBX 13 24 1 -7
BITMAP
0008
0018
0018
0018
0018
0018
0218
0218
0718
0108
8208
8008
8008
C008
E038
7FF8
7FF0
0000
0240
07E0
0360
0080
01C0
00C0
ENDCHAR
STARTCHAR E679
ENCODING 59001
SWIDTH 460 0
DWIDTH 16 0
BBX 15 24 1 -7
BITMAP
0008
0018
0038
0018
0018
0018
0218
0218
0718
0118
8208
8008
8008
C008
E038
7FFE
7FF6
0000
0240
07E0
0360
0080
01C0
00C0
ENDCHAR
STARTCHAR E67A
ENCODING 59002
SWIDTH 316 0
DWIDTH 11 0
BBX 11 24 -1 -7
BITMAP
0020
00E0
07E0
1F00
7C00
7000
E000
F000
7800
3E00
0F00
0380
01C0
00E0
0060
7FE0
7FE0
0000
0900
1F80
0D80
0200
0700
0300
ENDCHAR
STARTCHAR E67B
ENCODING 59003
SWIDTH 374 0
DWIDTH 13 0
BBX 14 24 -1 -7
BITMAP
0020
00E0
07E0
1F80
7C00
7000
E000
F000
7800
3E00
0F00
0380
01C0
00E0
0070
7FFC
7FFC
0000
0480
0FC0
06C0
0100
0380
0180
ENDCHAR
STARTCHAR FEDB
ENCODING 59004
SWIDTH 460 0
DWIDTH 16 0
BBX 16 19 0 0
BITMAP
0006
001C
0071
01C7
033F
00FE
03FB
039B
070E
0780
03C0
01F0
0078
801C
800E
8007
C003
FFFF
3FFE
ENDCHAR
STARTCHAR FEDB
ENCODING 59005
SWIDTH 547 0
DWIDTH 19 0
BBX 19 19 0 0
BITMAP
000600
001C00
007100
01C700
033F00
00FE00
03FB00
039B00
070E00
078000
03C000
01F000
007800
801C00
800E00
800700
C00380
FFFFE0
3FFFE0
ENDCHAR
STARTCHAR FEDB
ENCODING 59006
SWIDTH 288 0
DWIDTH 10 0
BBX 11 19 -1 0
BITMAP
00C0
0380
0E20
38E0
67E0
1FC0
7F60
7360
E1C0
F000
7800
3E00
0F00
0380
01C0
00E0
0060
7FE0
7FE0
ENDCHAR
STARTCHAR FEDC
ENCODING 59007
SWIDTH 374 0
DWIDTH 13 0
BBX 14 19 -1 0
BITMAP
00C0
0380
0E20
38E0
67E0
1FC0
7F60
7360
E1C0
F000
7800
3E00
0F00
0380
01C0
00E0
0070
7FFC
7FFC
ENDCHAR
STARTCHAR FEDB
ENCODING 59008
SWIDTH 460 0
DWIDTH 16 0
BBX 16 23 0 -4
BITMAP
0006
001C
0071
01C7
033F
00F8
03E0
0380
0700
0780
03C0
01F0
0078
801C
800E
8007
C003
FFFF
3FFE
0000
0120
03F0
01B0
ENDCHAR
STARTCHAR FEDB
ENCODING 59009
SWIDTH 547 0
DWIDTH 19 0
BBX 19 23 0 -4
BITMAP
000600
001C00
007100
01C700
033F00
00F800
03E000
038000
070000
078000
03C000
01F000
007800
801C00
800E00
800700
C00380
FFFFE0
3FFFE0
000000
012000
03F000
01B000
ENDCHAR
STARTCHAR FEDB
ENCODING 59010
SWIDTH 288 0
DWIDTH 10 0
BBX 11 23 -1 -4
BITMAP
00C0
0380
0E20
38E0
67E0
1F00
7C00
7000
E000
F000
7800
3E00
0F00
0380
01C0
00E0
0060
7FE0
7FE0
0000
0900
1F80
0D80
ENDCHAR
STARTCHAR FEDC
ENCODING 59011
SWIDTH 374 0
DWIDTH 13 0
BBX 14 23 -1 -4
BITMAP
00C0
0380
0E20
38E0
67E0
1F80
7C00
7000
E000
F000
7800
3E00
0F00
0380
01C0
00E0
0070
7FFC
7FFC
0000
0480
0FC0
06C0
ENDCHAR
STARTCHAR FEDB
ENCODING 59012
SWIDTH 460 0
DWIDTH 16 0
BBX 16 23 0 0
BITMAP
0200
0700
0340
02E0
0766
031C
0071
01C7
033F
00F8
03E0
0380
0700
0780
03C0
01F0
0078
801C
800E
8007
C003
FFFF
3FFE
ENDCHAR
STARTCHAR FEDB
ENCODING 59013
SWIDTH 547 0
DWIDTH 19 0
BBX 19 23 0 0
BITMAP
020000
070000
034000
02E000
076600
031C00
007100
01C700
033F00
00F800
03E000
038000
070000
078000
03C000
01F000
007800
801C00
800E00
800700
C00380
FFFFE0
3FFFE0
ENDCHAR
STARTCHAR FEDB
ENCODING 59014
SWIDTH 288 0
DWIDTH 10 0
BBX 11 23 -1 0
BITMAP
4000
E000
6800
5C00
ECC0
6380
0E20
38E0
67E0
1F00
7C00
7000
E000
F000
7800
3E00
0F00
0380
01C0
00E0
0060
7FE0
7FE0
ENDCHAR
STARTCHAR FEDC
ENCODING 59015
SWIDTH 374 0
DWIDTH 13 0
BBX 14 23 -1 0
BITMAP
4000
E000
6800
5C00
ECC0
6380
0E20
38E0
67E0
1F80
7C00
7000
E000
F000
7800
3E00
0F00
0380
01C0
00E0
0070
7FFC
7FFC
ENDCHAR
STARTCHAR E688
ENCODING 59016
SWIDTH 403 0
DWIDTH 14 0
BBX 12 26 1 -4
BITMAP
0110
01B0
00E0
0040
0000
0020
0060
0060
0060
0060
0020
0020
0020
0030
0030
0030
0030
4030
4030
8010
8010
8010
8030
C0E0
7FC0
1E00
ENDCHAR
STARTCHAR E689
ENCODING 59017
SWIDTH 460 0
DWIDTH 16 0
BBX 15 27 1 -5
BITMAP
0088
00D8
0070
0020
0000
0020
0020
0020
0020
0030
0030
0030
0030
0030
0030
0030
0030
0030
4010
4010
801E
801E
8010
C030
60E0
7FC0
1F00
ENDCHAR
STARTCHAR E68A
ENCODING 59018
SWIDTH 172 0
DWIDTH 6 0
BBX 6 22 0 0
BITMAP
44
6C
38
10
00
10
10
30
30
30
30
10
10
10
10
10
10
18
18
18
F8
F0
ENDCHAR
STARTCHAR E68B
ENCODING 59019
SWIDTH 201 0
DWIDTH 7 0
BBX 7 22 0 0
BITMAP
44
6C
38
10
00
10
10
30
30
30
30
10
10
10
10
10
10
10
18
18
FE
EE
ENDCHAR
STARTCHAR E68C
ENCODING 59020
SWIDTH 403 0
DWIDTH 14 0
BBX 12 25 1 -4
BITMAP
0040
00E0
0060
0000
0020
0060
0060
0060
0060
0020
0020
0020
0030
0030
0030
0030
4030
4030
8010
8010
8010
8030
C0E0
7FC0
1E00
ENDCHAR
STARTCHAR E68D
ENCODING 59021
SWIDTH 460 0
DWIDTH 16 0
BBX 15 26 1 -5
BITMAP
0040
00E0
0060
0000
0020
0020
0020
0020
0030
0030
0030
0030
0030
0030
0030
0030
0030
4010
4010
801E
801E
8010
C030
60E0
7FC0
1F00
ENDCHAR
STARTCHAR E68E
ENCODING 59022
SWIDTH 144 0
DWIDTH 5 0
BBX 5 21 0 0
BITMAP
20
70
30
00
10
10
30
30
30
30
10
10
10
10
10
10
18
18
18
F8
F0
ENDCHAR
STARTCHAR E68F
ENCODING 59023
SWIDTH 172 0
DWIDTH 6 0
BBX 7 21 0 0
BITMAP
20
70
30
00
10
10
30
30
30
30
10
10
10
10
10
10
10
18
18
FE
EE
ENDCHAR
STARTCHAR E690
ENCODING 59024
SWIDTH 403 0
DWIDTH 14 0
BBX 12 28 1 -4
BITMAP
0080
01C0
00C0
0120
03F0
01B0
0000
0020
0060
0060
0060
0060
0020
0020
0020
0030
0030
0030
0030
4030
4030
8010
8010
8010
8030
C0E0
7FC0
1E00
ENDCHAR
STARTCHAR E691
ENCODING 59025
SWIDTH 460 0
DWIDTH 16 0
BBX 15 29 1 -5
BITMAP
0040
00E0
0060
0090
01F8
00D8
0000
0020
0020
0020
0020
0030
0030
0030
0030
0030
0030
0030
0030
0030
4010
4010
801E
801E
8010
C030
60E0
7FC0
1F00
ENDCHAR
STARTCHAR E692
ENCODING 59026
SWIDTH 86 0
DWIDTH 3 0
BBX 6 24 0 0
BITMAP
20
70
30
48
FC
6C
00
00
10
10
30
30
30
30
10
10
10
10
10
10
18
18
18
F8
ENDCHAR
STARTCHAR E693
ENCODING 59027
SWIDTH 86 0
DWIDTH 3 0
BBX 7 24 0 0
BITMAP
20
70
30
48
FC
6C
00
10
10
30
30
30
30
10
10
10
10
10
10
10
18
18
FE
EE
ENDCHAR
STARTCHAR E694
ENCODING 59028
SWIDTH 432 0
DWIDTH 15 0
BBX 13 20 1 -8
BITMAP
0600
0700
0200
0000
0000
0000
0010
0010
2038
4018
4018
8008
8008
C018
C078
F9F0
7FE0
1F60
0360
01C0
ENDCHAR
STARTCHAR E695
ENCODING 59029
SWIDTH 432 0
DWIDTH 15 0
BBX 15 20 0 -8
BITMAP
0200
0700
0300
0000
0000
0000
0000
0018
2018
201C
400E
400E
C00C
C008
E018
F8F0
7FF0
1FB0
01B0
00E0
ENDCHAR
STARTCHAR E696
ENCODING 59030
SWIDTH 230 0
DWIDTH 8 0
BBX 6 17 0 -3
BITMAP
40
70
30
00
00
00
08
08
18
0C
0C
04
FC
F8
D8
D8
70
ENDCHAR
STARTCHAR E697
ENCODING 59031
SWIDTH 288 0
DWIDTH 10 0
BBX 10 17 0 -3
BITMAP
1000
3800
1800
0000
0000
0000
0400
0400
0400
0600
0200
0600
FFC0
FFC0
6C00
6C00
3800
ENDCHAR
STARTCHAR E698
ENCODING 59032
SWIDTH 432 0
DWIDTH 15 0
BBX 13 18 1 -6
BITMAP
0600
0700
0200
0D80
0FC0
0480
0010
0010
2038
4018
4018
8008
8008
C018
C078
F9F0
7FE0
1F00
ENDCHAR
STARTCHAR E699
ENCODING 59033
SWIDTH 432 0
DWIDTH 15 0
BBX 15 18 0 -6
BITMAP
0200
0700
0300
0480
0FC0
06C0
0000
0018
2018
201C
400E
400E
C00C
C008
E018
F8F0
7FE0
1F80
ENDCHAR
STARTCHAR E69A
ENCODING 59034
SWIDTH 230 0
DWIDTH 8 0
BBX 6 15 0 -7
BITMAP
08
08
18
0C
0C
04
FC
F8
00
48
FC
6C
10
38
18
ENDCHAR
STARTCHAR E69B
ENCODING 59035
SWIDTH 288 0
DWIDTH 10 0
BBX 10 15 0 -7
BITMAP
0400
0400
0400
0600
0200
0600
FFC0
FFC0
0000
2400
7E00
3600
0800
1C00
0C00
ENDCHAR
STARTCHAR E69C
ENCODING 59036
SWIDTH 259 0
DWIDTH 9 0
BBX 8 18 1 -1
BITMAP
38
70
40
7C
30
20
00
00
20
20
38
3C
5E
87
83
FE
FE
10
ENDCHAR
STARTCHAR E69D
ENCODING 59037
SWIDTH 288 0
DWIDTH 10 0
BBX 10 20 0 0
BITMAP
3800
7000
4000
7C00
3000
2000
0000
0000
0400
0400
0400
1C00
3C00
6400
E400
FC00
7C00
1600
07C0
03C0
ENDCHAR
STARTCHAR E69E
ENCODING 59038
SWIDTH 259 0
DWIDTH 9 0
BBX 8 18 1 -1
BITMAP
38
70
40
7C
30
20
00
00
20
20
38
3C
5E
87
83
FE
FE
10
ENDCHAR
STARTCHAR E69F
ENCODING 59039
SWIDTH 345 0
DWIDTH 12 0
BBX 12 13 0 0
BITMAP
0E00
1C00
1000
1F00
0C00
0800
0000
0000
0E00
1F00
3380
61F0
C0F0
ENDCHAR
STARTCHAR E6A0
ENCODING 59040
SWIDTH 259 0
DWIDTH 9 0
BBX 8 15 1 -1
BITMAP
6C
FE
24
00
00
20
20
38
3C
5E
87
83
FE
FE
10
ENDCHAR
STARTCHAR E6A1
ENCODING 59041
SWIDTH 345 0
DWIDTH 12 0
BBX 12 10 0 0
BITMAP
1200
3F00
1B00
0000
0000
0E00
1F00
3380
61F0
C0F0
ENDCHAR
STARTCHAR E6A2
ENCODING 59042
SWIDTH 288 0
DWIDTH 10 0
BBX 12 13 -2 -6
BITMAP
00C0
01E0
01E0
0110
0190
01F0
00F0
0030
0760
8DE0
4DC0
3F80
1F00
ENDCHAR
STARTCHAR E6A3
ENCODING 59043
SWIDTH 316 0
DWIDTH 11 0
BBX 13 13 -2 -6
BITMAP
00C0
01E0
01E0
0330
03B0
03F8
01F8
0030
0760
8DE0
4DC0
3F80
1F00
ENDCHAR
STARTCHAR E6A4
ENCODING 59044
SWIDTH 288 0
DWIDTH 10 0
BBX 12 18 -2 -6
BITMAP
0240
07E0
0360
0000
0000
00C0
01E0
01E0
0110
0190
01F0
00F0
0030
0060
8060
41C0
3F80
1F00
ENDCHAR
STARTCHAR E6A5
ENCODING 59045
SWIDTH 316 0
DWIDTH 11 0
BBX 13 18 -2 -6
BITMAP
0240
07E0
0360
0000
0000
00C0
01E0
01E0
0330
03B0
03F8
01F8
0030
0060
80E0
41C0
3F80
1F00
ENDCHAR
STARTCHAR E6A6
ENCODING 59046
SWIDTH 518 0
DWIDTH 18 0
BBX 19 14 1 -6
BITMAP
0000E0
0003E0
040F40
041800
081000
183000
383F00
703FC0
D007C0
1001C0
180F80
1C7F00
0FFC00
07E000
ENDCHAR
STARTCHAR E6A7
ENCODING 59047
SWIDTH 489 0
DWIDTH 17 0
BBX 20 10 1 -8
BITMAP
0803F0
080FF0
100C00
301E00
701F80
D80F80
1C0780
1E3F00
0FFC00
03F000
ENDCHAR
STARTCHAR E6A8
ENCODING 59048
SWIDTH 518 0
DWIDTH 18 0
BBX 16 16 1 -6
BITMAP
0880
0D80
0707
021F
207A
20C0
4080
4180
41F8
81FE
803E
800E
C07C
E3F8
7FE0
3F00
ENDCHAR
STARTCHAR E6A9
ENCODING 59049
SWIDTH 489 0
DWIDTH 17 0
BBX 17 12 1 -8
BITMAP
110000
1B0000
4E1F80
447F80
406000
80F000
80FC00
C07C00
E03C00
F1F800
7FE000
1F8000
ENDCHAR
STARTCHAR E6AA
ENCODING 59050
SWIDTH 201 0
DWIDTH 7 0
BBX 7 13 -1 0
BITMAP
44
6C
38
10
00
04
04
04
06
06
06
7E
7C
ENDCHAR
STARTCHAR E6AB
ENCODING 59051
SWIDTH 288 0
DWIDTH 10 0
BBX 10 13 0 0
BITMAP
4400
6C00
3800
1000
0000
0400
0400
0400
0600
0200
0600
FFC0
FFC0
ENDCHAR
STARTCHAR E6AC
ENCODING 59052
SWIDTH 518 0
DWIDTH 18 0
BBX 16 21 1 -13
BITMAP
0007
001F
207A
20C0
4080
4180
41F8
81FE
803E
800E
C07C
E3F8
7FE0
3F00
0000
0900
1F80
0D80
0200
0700
0300
ENDCHAR
STARTCHAR E6AD
ENCODING 59053
SWIDTH 489 0
DWIDTH 17 0
BBX 17 17 1 -15
BITMAP
401F80
407F80
406000
80F000
80FC00
C07C00
E03C00
F1F800
7FE000
1F8000
000000
048000
0FC000
06C000
010000
038000
018000
ENDCHAR
STARTCHAR E6AE
ENCODING 59054
SWIDTH 172 0
DWIDTH 6 0
BBX 6 15 0 -7
BITMAP
08
08
08
0C
0C
0C
FC
F8
00
48
FC
6C
10
38
18
ENDCHAR
STARTCHAR E6AF
ENCODING 59055
SWIDTH 288 0
DWIDTH 10 0
BBX 10 15 0 -7
BITMAP
0400
0400
0400
0600
0200
0600
FFC0
FFC0
0000
2400
7E00
3600
0800
1C00
0C00
ENDCHAR
STARTCHAR E6AA
ENCODING 59056
SWIDTH 172 0
DWIDTH 6 0
BBX 6 8 0 0
BITMAP
08
08
08
0C
0C
0C
FC
F8
ENDCHAR
STARTCHAR E6AB
ENCODING 59057
SWIDTH 288 0
DWIDTH 10 0
BBX 10 8 0 0
BITMAP
0400
0400
0400
0600
0200
0600
FFC0
FFC0
ENDCHAR
STARTCHAR FBDD
ENCODING 59058
SWIDTH 345 0
DWIDTH 12 0
BBX 17 18 -2 -6
BITMAP
030700
070E00
050800
070F80
070600
0CC400
19E000
01F000
033000
03B000
03F800
01F800
003000
007000
80E000
61C000
3F8000
1F0000
ENDCHAR
STARTCHAR FEFB
ENCODING 59088
SWIDTH 403 0
DWIDTH 14 0
BBX 14 22 0 0
BITMAP
0044
006C
0038
0010
0000
0010
4030
F038
7838
7830
3C30
0620
0320
03A0
01E0
00C0
00C0
01E0
0320
0620
0FE0
0FC0
ENDCHAR
STARTCHAR FEFC
ENCODING 59089
SWIDTH 432 0
DWIDTH 15 0
BBX 15 23 1 -1
BITMAP
0088
00D8
0070
0020
0000
0020
E020
F020
F020
7820
3C30
0C30
0630
0630
0330
0370
0370
01F0
01B0
0398
031E
0F0E
7C00
ENDCHAR
STARTCHAR FEFB
ENCODING 59090
SWIDTH 374 0
DWIDTH 13 0
BBX 13 21 0 0
BITMAP
0010
0038
0018
0000
0010
4030
F038
7838
7830
3C30
0620
0320
03A0
01E0
00C0
00C0
01E0
0320
0620
0FE0
0FC0
ENDCHAR
STARTCHAR FEFC
ENCODING 59091
SWIDTH 432 0
DWIDTH 15 0
BBX 15 22 1 -1
BITMAP
0020
0070
0030
0000
0020
E020
F020
F020
7820
3C30
0C30
0630
0630
0330
0370
0370
01F0
01B0
0398
031E
0F0E
7C00
ENDCHAR
STARTCHAR FEFB
ENCODING 59092
SWIDTH 403 0
DWIDTH 14 0
BBX 14 24 0 0
BITMAP
0020
0070
0030
0048
00FC
006C
0000
0010
4030
F038
7838
7830
3C30
0620
0320
03A0
01E0
00C0
00C0
01E0
0320
0620
0FE0
0FC0
ENDCHAR
STARTCHAR FEFC
ENCODING 59093
SWIDTH 432 0
DWIDTH 15 0
BBX 15 25 1 -1
BITMAP
0040
00E0
0060
0090
01F8
00D8
0000
0020
E020
F020
F020
7820
3C30
0C30
0630
0630
0330
0370
0370
01F0
01B0
0398
031E
0F0E
7C00
ENDCHAR
STARTCHAR E6F0
ENCODING 59120
SWIDTH 921 0
DWIDTH 32 0
BBX 32 21 0 -5
BITMAP
00220000
00660000
00660000
00660000
00660000
00260000
00220000
00220800
00320800
00320800
00320804
00320C06
40320C06
40330C03
8011FC03
8011F803
80100003
80304806
C0E0FC0C
7FC06FF8
1E0000F0
ENDCHAR
STARTCHAR 0661
ENCODING 59124
SWIDTH 374 0
DWIDTH 13 0
BBX 10 16 2 0
BITMAP
7000
F840
FC40
8E80
C780
6300
6200
6000
7000
3000
3000
3000
1000
1000
1000
1000
ENDCHAR
STARTCHAR FB50
ENCODING 64336
SWIDTH 144 0
DWIDTH 5 0
BBX 7 18 -1 0
BITMAP
0E
72
9C
00
10
10
20
30
30
30
30
30
10
10
10
10
10
10
ENDCHAR
STARTCHAR FB51
ENCODING 64337
SWIDTH 230 0
DWIDTH 8 0
BBX 8 18 -1 0
BITMAP
0E
72
9C
00
10
30
30
30
10
10
10
10
10
10
10
18
0E
0E
ENDCHAR
STARTCHAR FB52
ENCODING 64338
SWIDTH 489 0
DWIDTH 17 0
BBX 15 14 1 -7
BITMAP
0004
8004
8002
8002
C00E
FFFC
3FF8
0000
0080
01C0
00C0
0080
01C0
00C0
ENDCHAR
STARTCHAR FB53
ENCODING 64339
SWIDTH 547 0
DWIDTH 19 0
BBX 18 14 1 -8
BITMAP
000200
800700
800300
800100
E00FC0
7FFFC0
3FF000
000000
004000
00E000
006000
004000
00E000
006000
ENDCHAR
STARTCHAR FB54
ENCODING 64340
SWIDTH 230 0
DWIDTH 8 0
BBX 8 14 0 -7
BITMAP
06
06
07
07
03
FF
FE
00
08
1C
0C
08
1C
0C
ENDCHAR
STARTCHAR FB55
ENCODING 64341
SWIDTH 259 0
DWIDTH 9 0
BBX 9 14 0 -7
BITMAP
0400
0400
0600
0600
0200
FF80
FF80
0000
0800
1C00
0C00
0800
1C00
0C00
ENDCHAR
STARTCHAR FB56
ENCODING 64342
SWIDTH 489 0
DWIDTH 17 0
BBX 15 14 1 -7
BITMAP
0004
8004
8002
8002
C00E
FFFC
3FF8
0000
0240
07E0
0360
0080
01C0
00C0
ENDCHAR
STARTCHAR FB57
ENCODING 64343
SWIDTH 547 0
DWIDTH 19 0
BBX 18 14 1 -8
BITMAP
000200
800700
800300
800100
E00FC0
7FFFC0
3FF000
000000
012000
03F000
01B000
004000
00E000
006000
ENDCHAR
STARTCHAR FB58
ENCODING 64344
SWIDTH 230 0
DWIDTH 8 0
BBX 8 14 0 -7
BITMAP
06
06
07
07
03
FF
FE
00
24
7E
36
08
1C
0C
ENDCHAR
STARTCHAR FB59
ENCODING 64345
SWIDTH 259 0
DWIDTH 9 0
BBX 9 14 0 -7
BITMAP
0400
0400
0600
0600
0200
FF80
FF80
0000
2400
7E00
3600
0800
1C00
0C00
ENDCHAR
STARTCHAR FB5A
ENCODING 64346
SWIDTH 489 0
DWIDTH 17 0
BBX 15 14 1 -7
BITMAP
0004
8004
8002
8002
C00E
FFFC
3FF8
0000
0480
0FC0
06C0
0480
0FC0
06C0
ENDCHAR
STARTCHAR FB5B
ENCODING 64347
SWIDTH 547 0
DWIDTH 19 0
BBX 18 14 1 -8
BITMAP
000200
800700
800300
800100
E00FC0
7FFFC0
3FF000
000000
024000
07E000
036000
024000
07E000
036000
ENDCHAR
STARTCHAR FB5C
ENCODING 64348
SWIDTH 230 0
DWIDTH 8 0
BBX 8 14 0 -7
BITMAP
06
06
07
07
03
FF
FE
00
24
7E
36
24
7E
36
ENDCHAR
STARTCHAR FB5D
ENCODING 64349
SWIDTH 259 0
DWIDTH 9 0
BBX 9 14 0 -7
BITMAP
0400
0400
0600
0600
0200
FF80
FF80
0000
2400
7E00
3600
2400
7E00
3600
ENDCHAR
STARTCHAR FB5E
ENCODING 64350
SWIDTH 489 0
DWIDTH 17 0
BBX 15 13 1 0
BITMAP
0100
0380
0180
0100
0380
0180
0004
8004
8002
8002
C00E
FFFC
3FF8
ENDCHAR
STARTCHAR FB5F
ENCODING 64351
SWIDTH 547 0
DWIDTH 19 0
BBX 18 13 1 -1
BITMAP
008000
01C000
00C000
008000
01C000
00C000
000200
800700
800300
800100
E00FC0
7FFFC0
3FF000
ENDCHAR
STARTCHAR FB60
ENCODING 64352
SWIDTH 230 0
DWIDTH 8 0
BBX 8 15 0 0
BITMAP
08
1C
0C
08
1C
0C
00
00
06
06
07
07
03
FF
FE
ENDCHAR
STARTCHAR FB61
ENCODING 64353
SWIDTH 259 0
DWIDTH 9 0
BBX 9 15 0 0
BITMAP
0800
1C00
0C00
0800
1C00
0C00
0000
0000
0400
0400
0600
0600
0200
FF80
FF80
ENDCHAR
STARTCHAR FB62
ENCODING 64354
SWIDTH 489 0
DWIDTH 17 0
BBX 15 13 1 0
BITMAP
0480
0FC0
06C0
0480
0FC0
06C0
0004
8004
8002
8002
C00E
FFFC
3FF8
ENDCHAR
STARTCHAR FB63
ENCODING 64355
SWIDTH 547 0
DWIDTH 19 0
BBX 18 13 1 -1
BITMAP
048000
0FC000
06C000
048000
0FC000
06C000
000200
800700
800300
800100
E00FC0
7FFFC0
3FF000
ENDCHAR
STARTCHAR FB64
ENCODING 64356
SWIDTH 230 0
DWIDTH 8 0
BBX 8 15 0 0
BITMAP
48
FC
6C
48
FC
6C
00
00
06
06
07
07
03
FF
FE
ENDCHAR
STARTCHAR FB65
ENCODING 64357
SWIDTH 259 0
DWIDTH 9 0
BBX 9 15 0 0
BITMAP
4800
FC00
6C00
4800
FC00
6C00
0000
0000
0400
0400
0600
0600
0200
FF80
FF80
ENDCHAR
STARTCHAR FB66
ENCODING 64358
SWIDTH 489 0
DWIDTH 17 0
BBX 15 11 1 0
BITMAP
0400
0500
0680
0780
0004
8004
8002
8002
C00E
FFFC
3FF8
ENDCHAR
STARTCHAR FB67
ENCODING 64359
SWIDTH 547 0
DWIDTH 19 0
BBX 18 11 1 -1
BITMAP
020000
028000
034000
03C000
000200
800700
800300
800100
E00FC0
7FFFC0
3FF000
ENDCHAR
STARTCHAR FB68
ENCODING 64360
SWIDTH 230 0
DWIDTH 8 0
BBX 8 13 0 0
BITMAP
20
28
34
3C
00
00
06
06
07
07
03
FF
FE
ENDCHAR
STARTCHAR FB69
ENCODING 64361
SWIDTH 259 0
DWIDTH 9 0
BBX 9 13 0 0
BITMAP
2000
2800
3400
3C00
0000
0000
0400
0400
0600
0600
0200
FF80
FF80
ENDCHAR
STARTCHAR FB6A
ENCODING 64362
SWIDTH 633 0
DWIDTH 22 0
BBX 20 18 1 -1
BITMAP
000100
000380
000180
000240
0007E0
000360
000000
000040
0001E0
0001F0
400330
400330
8003F0
8001F0
C000F0
7FFFF0
3FFFE0
07E000
ENDCHAR
STARTCHAR FB6B
ENCODING 64363
SWIDTH 662 0
DWIDTH 23 0
BBX 22 17 1 -1
BITMAP
000100
000380
000180
000240
0007E0
000360
000000
0000C0
0001E0
000370
800230
800390
8003F0
C001F0
FFFFFC
7FFFFC
3FFFC0
ENDCHAR
STARTCHAR FB6C
ENCODING 64364
SWIDTH 288 0
DWIDTH 10 0
BBX 9 17 0 0
BITMAP
0800
1C00
0C00
1200
3F00
1B00
0000
0600
0F00
0B00
1980
1880
1F80
0F80
0780
FF80
FF00
ENDCHAR
STARTCHAR FB6D
ENCODING 64365
SWIDTH 288 0
DWIDTH 10 0
BBX 10 17 0 0
BITMAP
1000
3800
1800
2400
7E00
3600
0000
0C00
1C00
3400
2200
3200
3E00
3E00
0F00
FFC0
FFC0
ENDCHAR
STARTCHAR FB6E
ENCODING 64366
SWIDTH 633 0
DWIDTH 22 0
BBX 20 18 1 -1
BITMAP
000900
001F80
000D80
000900
001F80
000D80
000000
000040
0001E0
0001F0
400330
400330
8003F0
8001F0
C000F0
7FFFF0
3FFFE0
07E000
ENDCHAR
STARTCHAR FB6F
ENCODING 64367
SWIDTH 662 0
DWIDTH 23 0
BBX 22 17 1 -1
BITMAP
000900
001F80
000D80
000900
001F80
000D80
000000
0000C0
0001E0
000370
800230
800390
8003F0
C001F0
FFFFFC
7FFFFC
3FFFC0
ENDCHAR
STARTCHAR FB70
ENCODING 64368
SWIDTH 288 0
DWIDTH 10 0
BBX 9 17 0 0
BITMAP
4800
FC00
6C00
4800
FC00
6C00
0000
0600
0F00
0B00
1980
1880
1F80
0F80
0780
FF80
FF00
ENDCHAR
STARTCHAR FB71
ENCODING 64369
SWIDTH 288 0
DWIDTH 10 0
BBX 10 17 0 0
BITMAP
4800
FC00
6C00
4800
FC00
6C00
0000
0C00
1C00
3400
2200
3200
3E00
3E00
0F00
FFC0
FFC0
ENDCHAR
STARTCHAR FB72
ENCODING 64370
SWIDTH 403 0
DWIDTH 14 0
BBX 13 17 1 -9
BITMAP
3C30
3FE0
7FE0
1C00
3000
2000
2180
41C0
4080
4180
41C0
4080
6000
6000
3838
1FE0
0F80
ENDCHAR
STARTCHAR FB73
ENCODING 64371
SWIDTH 403 0
DWIDTH 14 0
BBX 13 16 1 -9
BITMAP
3FC0
7FC0
FFC0
9D00
2100
41F8
40F8
8600
8700
8200
8600
8700
C200
7018
3FE0
1F80
ENDCHAR
STARTCHAR FB74
ENCODING 64372
SWIDTH 460 0
DWIDTH 16 0
BBX 15 14 0 -7
BITMAP
1E00
3F80
23C0
00F0
007C
FFFE
FFFE
0000
0300
0380
0100
0300
0380
0100
ENDCHAR
STARTCHAR FB75
ENCODING 64373
SWIDTH 403 0
DWIDTH 14 0
BBX 14 14 0 -7
BITMAP
3C00
7F00
4780
01E0
00F0
FFFC
FFFC
0000
0300
0380
0100
0300
0380
0100
ENDCHAR
STARTCHAR FB76
ENCODING 64374
SWIDTH 403 0
DWIDTH 14 0
BBX 13 17 1 -9
BITMAP
3C30
3FE0
7FE0
1C00
3000
2000
2000
4000
46C0
47E0
4240
4000
6000
6000
3838
1FE0
0F80
ENDCHAR
STARTCHAR FB77
ENCODING 64375
SWIDTH 403 0
DWIDTH 14 0
BBX 13 16 1 -9
BITMAP
3FC0
7FC0
FFC0
9D00
2100
41F8
40F8
8000
8000
8D80
8FC0
8480
C000
7018
3FE0
1F80
ENDCHAR
STARTCHAR FB78
ENCODING 64376
SWIDTH 460 0
DWIDTH 16 0
BBX 15 14 0 -7
BITMAP
1E00
3F80
23C0
00F0
007C
FFFE
FFFE
0000
0000
0000
0000
0D80
0FC0
0480
ENDCHAR
STARTCHAR FB79
ENCODING 64377
SWIDTH 403 0
DWIDTH 14 0
BBX 14 14 0 -7
BITMAP
3C00
7F00
4780
01E0
00F0
FFFC
FFFC
0000
0000
0000
0000
0D80
0FC0
0480
ENDCHAR
STARTCHAR FB7A
ENCODING 64378
SWIDTH 403 0
DWIDTH 14 0
BBX 13 17 1 -9
BITMAP
3C30
3FE0
7FE0
1C00
3000
2000
2000
46C0
47E0
4240
4180
41C0
6080
6000
3838
1FE0
0F80
ENDCHAR
STARTCHAR FB7B
ENCODING 64379
SWIDTH 403 0
DWIDTH 14 0
BBX 13 16 1 -9
BITMAP
3FC0
7FC0
FFC0
9D00
2100
41F8
40F8
8D80
8FC0
8480
8300
8380
C100
7018
3FE0
1F80
ENDCHAR
STARTCHAR FB7C
ENCODING 64380
SWIDTH 460 0
DWIDTH 16 0
BBX 15 14 0 -7
BITMAP
1E00
3F80
23C0
00F0
007C
FFFE
FFFE
0000
0D80
0FC0
0480
0300
0380
0100
ENDCHAR
STARTCHAR FB7D
ENCODING 64381
SWIDTH 403 0
DWIDTH 14 0
BBX 14 14 0 -7
BITMAP
3C00
7F00
4780
01E0
00F0
FFFC
FFFC
0000
0D80
0FC0
0480
0300
0380
0100
ENDCHAR
STARTCHAR FB7E
ENCODING 64382
SWIDTH 403 0
DWIDTH 14 0
BBX 13 17 1 -9
BITMAP
3C30
3FE0
7FE0
1C00
3000
2000
2000
46C0
47E0
4240
46C0
47E0
6240
6000
3838
1FE0
0F80
ENDCHAR
STARTCHAR FB7F
ENCODING 64383
SWIDTH 403 0
DWIDTH 14 0
BBX 13 16 1 -9
BITMAP
3FC0
7FC0
FFC0
9D00
2100
41F8
40F8
8D80
8FC0
8480
8D80
8FC0
C480
7018
3FE0
1F80
ENDCHAR
STARTCHAR FB80
ENCODING 64384
SWIDTH 460 0
DWIDTH 16 0
BBX 15 14 0 -7
BITMAP
1E00
3F80
23C0
00F0
007C
FFFE
FFFE
0000
0D80
0FC0
0480
0D80
0FC0
0480
ENDCHAR
STARTCHAR FB81
ENCODING 64385
SWIDTH 403 0
DWIDTH 14 0
BBX 14 14 0 -7
BITMAP
3C00
7F00
4780
01E0
00F0
FFFC
FFFC
0000
0D80
0FC0
0480
0D80
0FC0
0480
ENDCHAR
STARTCHAR FB82
ENCODING 64386
SWIDTH 316 0
DWIDTH 11 0
BBX 8 14 2 -4
BITMAP
04
06
06
02
03
01
81
CF
FF
7C
00
24
7E
36
ENDCHAR
STARTCHAR FB83
ENCODING 64387
SWIDTH 316 0
DWIDTH 11 0
BBX 10 15 1 -5
BITMAP
0200
0200
0600
0300
0300
0300
8100
8180
CFC0
FFC0
7C00
0000
2400
7E00
3600
ENDCHAR
STARTCHAR FB84
ENCODING 64388
SWIDTH 316 0
DWIDTH 11 0
BBX 8 16 2 0
BITMAP
24
7E
36
00
00
00
04
06
06
02
03
01
81
CF
FF
7C
ENDCHAR
STARTCHAR FB85
ENCODING 64389
SWIDTH 316 0
DWIDTH 11 0
BBX 10 16 1 -1
BITMAP
2400
7E00
3600
0000
0000
0200
0200
0600
0300
0300
0300
8100
8180
CFC0
FFC0
7C00
ENDCHAR
STARTCHAR FB86
ENCODING 64390
SWIDTH 316 0
DWIDTH 11 0
BBX 8 19 2 0
BITMAP
10
38
18
24
7E
36
00
00
00
04
06
06
02
03
01
81
CF
FF
7C
ENDCHAR
STARTCHAR FB87
ENCODING 64391
SWIDTH 316 0
DWIDTH 11 0
BBX 10 19 1 -1
BITMAP
1000
3800
1800
2400
7E00
3600
0000
0000
0200
0200
0600
0300
0300
0300
8100
8180
CFC0
FFC0
7C00
ENDCHAR
STARTCHAR FB88
ENCODING 64392
SWIDTH 316 0
DWIDTH 11 0
BBX 8 15 2 0
BITMAP
10
14
1A
1E
00
04
06
06
02
03
01
81
CF
FF
7C
ENDCHAR
STARTCHAR FB89
ENCODING 64393
SWIDTH 316 0
DWIDTH 11 0
BBX 10 16 1 -1
BITMAP
0800
0A00
0D00
0F00
0000
0200
0200
0600
0300
0300
0300
8100
8180
CFC0
FFC0
7C00
ENDCHAR
STARTCHAR FB8A
ENCODING 64394
SWIDTH 259 0
DWIDTH 9 0
BBX 12 21 -2 -5
BITMAP
0080
01C0
00C0
0120
03F0
01B0
0000
0000
0000
0000
0080
00C0
00C0
0060
0060
0060
0060
00C0
8180
7F00
1E00
ENDCHAR
STARTCHAR FB8B
ENCODING 64395
SWIDTH 316 0
DWIDTH 11 0
BBX 13 21 -2 -5
BITMAP
0080
01C0
00C0
0120
03F0
01B0
0000
0000
0000
0000
0080
01C0
00C0
0060
0078
0078
0060
00C0
83C0
7F00
1C00
ENDCHAR
STARTCHAR FB8C
ENCODING 64396
SWIDTH 259 0
DWIDTH 9 0
BBX 11 18 -2 -5
BITMAP
0400
0500
0680
0780
0000
0000
0000
0080
00C0
00C0
0060
0060
0060
0060
00C0
8180
7F00
1E00
ENDCHAR
STARTCHAR FB8D
ENCODING 64397
SWIDTH 316 0
DWIDTH 11 0
BBX 13 18 -2 -5
BITMAP
0400
0500
0680
0780
0000
0000
0000
0080
01C0
00C0
0060
0078
0078
0060
00C0
83C0
7F00
1C00
ENDCHAR
STARTCHAR FEDB
ENCODING 64398
SWIDTH 460 0
DWIDTH 16 0
BBX 16 17 0 0
BITMAP
0001
0007
003F
00F8
03E0
0380
0700
0780
03C0
01F0
0078
801C
800E
8007
C003
FFFF
3FFE
ENDCHAR
STARTCHAR FEDB
ENCODING 64399
SWIDTH 547 0
DWIDTH 19 0
BBX 19 17 0 0
BITMAP
000100
000700
003F00
00F800
03E000
038000
070000
078000
03C000
01F000
007800
801C00
800E00
800700
C00380
FFFFE0
3FFFE0
ENDCHAR
STARTCHAR FEDB
ENCODING 64400
SWIDTH 288 0
DWIDTH 10 0
BBX 11 17 -1 0
BITMAP
0020
00E0
07E0
1F00
7C00
7000
E000
F000
7800
3E00
0F00
0380
01C0
00E0
0060
7FE0
7FE0
ENDCHAR
STARTCHAR FEDC
ENCODING 64401
SWIDTH 374 0
DWIDTH 13 0
BBX 14 17 -1 0
BITMAP
0020
00E0
07E0
1F80
7C00
7000
E000
F000
7800
3E00
0F00
0380
01C0
00E0
0070
7FFC
7FFC
ENDCHAR
STARTCHAR FEDB
ENCODING 64402
SWIDTH 460 0
DWIDTH 16 0
BBX 16 19 0 0
BITMAP
000C
0038
00E1
0387
063F
00F8
03E0
0380
0700
0780
03C0
01F0
0078
801C
800E
8007
C003
FFFF
3FFE
ENDCHAR
STARTCHAR FEDB
ENCODING 64403
SWIDTH 547 0
DWIDTH 19 0
BBX 19 19 0 0
BITMAP
000C00
003800
00E100
038700
063F00
00F800
03E000
038000
070000
078000
03C000
01F000
007800
801C00
800E00
800700
C00380
FFFFE0
3FFFE0
ENDCHAR
STARTCHAR FEDB
ENCODING 64404
SWIDTH 288 0
DWIDTH 10 0
BBX 11 19 -1 0
BITMAP
0180
0700
1C20
70E0
C7E0
1F00
7C00
7000
E000
F000
7800
3E00
0F00
0380
01C0
00E0
0060
7FE0
7FE0
ENDCHAR
STARTCHAR FEDC
ENCODING 64405
SWIDTH 374 0
DWIDTH 13 0
BBX 14 19 -1 0
BITMAP
0180
0700
1C20
70E0
C7E0
1F80
7C00
7000
E000
F000
7800
3E00
0F00
0380
01C0
00E0
0070
7FFC
7FFC
ENDCHAR
STARTCHAR FEDB
ENCODING 64406
SWIDTH 460 0
DWIDTH 16 0
BBX 16 26 0 -7
BITMAP
000C
0038
00E1
0387
063F
00F8
03E0
0380
0700
0780
03C0
01F0
0078
801C
800E
8007
C003
FFFF
3FFE
0000
0100
0380
0180
0100
0380
0180
ENDCHAR
STARTCHAR FEDB
ENCODING 64407
SWIDTH 547 0
DWIDTH 19 0
BBX 19 26 0 -7
BITMAP
000C00
003800
00E100
038700
063F00
00F800
03E000
038000
070000
078000
03C000
01F000
007800
801C00
800E00
800700
C00380
FFFFE0
3FFFE0
000000
010000
038000
018000
010000
038000
018000
ENDCHAR
STARTCHAR FEDB
ENCODING 64408
SWIDTH 288 0
DWIDTH 10 0
BBX 11 26 -1 -7
BITMAP
0180
0700
1C20
70E0
C7E0
1F00
7C00
7000
E000
F000
7800
3E00
0F00
0380
01C0
00E0
0060
7FE0
7FE0
0000
0400
0E00
0600
0400
0E00
0600
ENDCHAR
STARTCHAR FEDC
ENCODING 64409
SWIDTH 374 0
DWIDTH 13 0
BBX 14 26 -1 -7
BITMAP
0180
0700
1C20
70E0
C7E0
1F80
7C00
7000
E000
F000
7800
3E00
0F00
0380
01C0
00E0
0070
7FFC
7FFC
0000
0400
0E00
0600
0400
0E00
0600
ENDCHAR
STARTCHAR FEDB
ENCODING 64410
SWIDTH 460 0
DWIDTH 16 0
BBX 16 21 0 0
BITMAP
0080
05C0
0ECC
0638
00E1
0387
063F
00F8
03E0
0380
0700
0780
03C0
01F0
0078
801C
800E
8007
C003
FFFF
3FFE
ENDCHAR
STARTCHAR FEDB
ENCODING 64411
SWIDTH 547 0
DWIDTH 19 0
BBX 19 21 0 0
BITMAP
008000
05C000
0ECC00
063800
00E100
038700
063F00
00F800
03E000
038000
070000
078000
03C000
01F000
007800
801C00
800E00
800700
C00380
FFFFE0
3FFFE0
ENDCHAR
STARTCHAR FEDB
ENCODING 64412
SWIDTH 316 0
DWIDTH 11 0
BBX 12 21 -2 0
BITMAP
0800
5C00
ECC0
6380
0E10
3870
63F0
0F80
3E00
3800
7000
7800
3C00
1F00
0780
01C0
00E0
0070
0030
3FF0
3FF0
ENDCHAR
STARTCHAR FEDC
ENCODING 64413
SWIDTH 403 0
DWIDTH 14 0
BBX 15 21 -2 0
BITMAP
0800
5C00
ECC0
6380
0E10
3870
63F0
0FC0
3E00
3800
7000
7800
3C00
1F00
0780
01C0
00E0
0070
0038
3FFE
3FFE
ENDCHAR
STARTCHAR FB9E
ENCODING 64414
SWIDTH 432 0
DWIDTH 15 0
BBX 13 12 1 -6
BITMAP
0010
0010
2038
4018
4018
8008
8008
C018
C078
F9F0
7FE0
1F00
ENDCHAR
STARTCHAR FB9F
ENCODING 64415
SWIDTH 432 0
DWIDTH 15 0
BBX 15 11 0 -6
BITMAP
0018
2018
201C
400E
400E
C00C
C008
E018
F8F0
7FE0
1F80
ENDCHAR
STARTCHAR FBA0
ENCODING 64416
SWIDTH 432 0
DWIDTH 15 0
BBX 13 18 1 -6
BITMAP
0400
0500
0680
0780
0000
0000
0010
0010
2038
4018
4018
8008
8008
C018
C078
F9F0
7FE0
1F00
ENDCHAR
STARTCHAR FBA1
ENCODING 64417
SWIDTH 432 0
DWIDTH 15 0
BBX 15 18 0 -6
BITMAP
0400
0500
0680
0780
0000
0000
0000
0018
2018
201C
400E
400E
C00C
C008
E018
F8F0
7FE0
1F80
ENDCHAR
STARTCHAR FBA2
ENCODING 64418
SWIDTH 230 0
DWIDTH 8 0
BBX 6 14 0 0
BITMAP
80
A0
D0
F0
00
00
08
08
18
0C
0C
04
FC
F8
ENDCHAR
STARTCHAR FBA3
ENCODING 64419
SWIDTH 288 0
DWIDTH 10 0
BBX 10 14 0 0
BITMAP
4000
5000
6800
7800
0000
0000
0400
0400
0400
0600
0200
0600
FFC0
FFC0
ENDCHAR
STARTCHAR FBA6
ENCODING 64422
SWIDTH 345 0
DWIDTH 12 0
BBX 11 11 0 -1
BITMAP
0600
0700
0780
0FC0
0FC0
12E0
1260
1F20
FFE0
FBE0
0040
ENDCHAR
STARTCHAR E69F
ENCODING 64423
SWIDTH 345 0
DWIDTH 12 0
BBX 12 5 0 0
BITMAP
0E00
1F00
3380
61F0
C0F0
ENDCHAR
STARTCHAR FBA8
ENCODING 64424
SWIDTH 230 0
DWIDTH 8 0
BBX 8 15 0 -5
BITMAP
18
18
18
18
18
18
18
1C
FF
E7
00
08
10
18
18
ENDCHAR
STARTCHAR FBA9
ENCODING 64425
SWIDTH 288 0
DWIDTH 10 0
BBX 10 11 0 -8
BITMAP
1000
F1C0
F3C0
1E00
1C00
1800
1800
1900
1A00
0B00
0300
ENDCHAR
STARTCHAR FBAA
ENCODING 64426
SWIDTH 316 0
DWIDTH 11 0
BBX 11 7 0 0
BITMAP
0E00
0FC0
13E0
1260
9F20
FFE0
79E0
ENDCHAR
STARTCHAR FBAB
ENCODING 64427
SWIDTH 432 0
DWIDTH 15 0
BBX 15 7 0 0
BITMAP
0E00
0FC0
13E0
1260
9F20
FFFE
79FE
ENDCHAR
STARTCHAR FBAC
ENCODING 64428
SWIDTH 316 0
DWIDTH 11 0
BBX 11 7 0 0
BITMAP
0E00
0FC0
13E0
1260
1F20
FFE0
F9E0
ENDCHAR
STARTCHAR FBAD
ENCODING 64429
SWIDTH 432 0
DWIDTH 15 0
BBX 15 7 0 0
BITMAP
0E00
0FC0
13E0
1260
1F20
FFFE
F9FE
ENDCHAR
STARTCHAR FEDB
ENCODING 64430
SWIDTH 432 0
DWIDTH 15 0
BBX 14 10 1 -6
BITMAP
0030
0078
1FC8
3F80
6000
C000
8000
8000
FFFC
7FF8
ENDCHAR
STARTCHAR FEDB
ENCODING 64431
SWIDTH 432 0
DWIDTH 15 0
BBX 14 10 1 -6
BITMAP
0030
0078
1FCC
3F8C
6000
C000
8000
8000
FFFC
7FF8
ENDCHAR
STARTCHAR FEDB
ENCODING 64432
SWIDTH 432 0
DWIDTH 15 0
BBX 14 18 1 -6
BITMAP
00E0
01C0
0100
01F0
00C0
0080
0000
0000
0030
0078
1FC8
3F80
6000
C000
8000
8000
FFFC
7FF8
ENDCHAR
STARTCHAR FEDB
ENCODING 64433
SWIDTH 432 0
DWIDTH 15 0
BBX 14 18 1 -6
BITMAP
00E0
01C0
0100
01F0
00C0
0080
0000
0000
0030
0078
1FCC
3F8C
6000
C000
8000
8000
FFFC
7FF8
ENDCHAR
STARTCHAR FBD3
ENCODING 64467
SWIDTH 432 0
DWIDTH 15 0
BBX 13 19 1 0
BITMAP
0400
0E00
0608
0918
1F98
0D98
0018
0018
0218
0218
0718
0108
8208
8008
8008
C008
E038
7FF8
7FF0
ENDCHAR
STARTCHAR FBD4
ENCODING 64468
SWIDTH 460 0
DWIDTH 16 0
BBX 15 19 1 0
BITMAP
0400
0E00
0608
0918
1FB8
0D98
0018
0018
0218
0218
0718
0118
8208
8008
8008
C008
E038
7FFE
7FF6
ENDCHAR
STARTCHAR FBD5
ENCODING 64469
SWIDTH 316 0
DWIDTH 11 0
BBX 11 22 -1 0
BITMAP
2000
7000
3400
2E00
7600
3020
00E0
07E0
1F00
7C00
7000
E000
F000
7800
3E00
0700
0380
01C0
00E0
0060
7FE0
7FE0
ENDCHAR
STARTCHAR FBD6
ENCODING 64470
SWIDTH 374 0
DWIDTH 13 0
BBX 14 22 -1 0
BITMAP
2000
7000
3400
2E00
7600
3020
00E0
07E0
1F80
7C00
7000
E000
F000
7800
3E00
0700
0380
01C0
00E0
0070
7FFC
7FFC
ENDCHAR
STARTCHAR FBD7
ENCODING 64471
SWIDTH 288 0
DWIDTH 10 0
BBX 12 21 -2 -6
BITMAP
0060
00E0
00A0
00E0
00E0
0180
0300
0000
00C0
01E0
01E0
0110
0190
01F0
00F0
0030
0060
8060
41C0
3F80
1F00
ENDCHAR
STARTCHAR FBD8
ENCODING 64472
SWIDTH 489 0
DWIDTH 17 0
BBX 13 21 -2 -6
BITMAP
0060
00E0
00A0
00E0
00E0
0180
0300
0000
00C0
01E0
01E0
0330
03B0
03F8
01F8
0030
0060
80E0
41C0
3F80
1E00
ENDCHAR
STARTCHAR FBD9
ENCODING 64473
SWIDTH 288 0
DWIDTH 10 0
BBX 12 18 -2 -6
BITMAP
0220
0360
01C0
0080
0000
00C0
01E0
01E0
0110
0190
01F0
00F0
0030
0060
8060
41C0
3F80
1F00
ENDCHAR
STARTCHAR FBDA
ENCODING 64474
SWIDTH 316 0
DWIDTH 11 0
BBX 13 18 -2 -6
BITMAP
0220
0360
01C0
0080
0000
00C0
01E0
01E0
0330
03B0
03F8
01F8
0030
0060
80E0
41C0
3F80
1F00
ENDCHAR
STARTCHAR FBDB
ENCODING 64475
SWIDTH 288 0
DWIDTH 10 0
BBX 12 20 -2 -6
BITMAP
0080
0100
0180
0180
0080
0080
0000
00C0
01E0
01E0
0110
0190
01F0
00F0
0030
0060
8060
41C0
3F80
1F00
ENDCHAR
STARTCHAR FBDC
ENCODING 64476
SWIDTH 316 0
DWIDTH 11 0
BBX 13 20 -2 -6
BITMAP
0080
0100
0180
0180
0080
0080
0000
00C0
01E0
01E0
0330
03B0
03F8
01F8
0030
0060
80E0
41C0
3F80
1F00
ENDCHAR
STARTCHAR FBDD
ENCODING 64477
SWIDTH 345 0
DWIDTH 12 0
BBX 17 18 -2 -6
BITMAP
030700
070E00
050800
070F80
070600
0C4400
18E000
01B000
013000
01B000
01F000
00F000
003000
003000
806000
61C000
3F8000
0F0000
ENDCHAR
STARTCHAR FBDE
ENCODING 64478
SWIDTH 288 0
DWIDTH 10 0
BBX 12 21 -2 -6
BITMAP
0100
0380
0180
0240
07E0
0360
0000
0000
00C0
01E0
01E0
0110
0190
01F0
00F0
0030
0060
8060
41C0
3F80
1F00
ENDCHAR
STARTCHAR FBDF
ENCODING 64479
SWIDTH 316 0
DWIDTH 11 0
BBX 13 21 -2 -6
BITMAP
0100
0380
0180
0240
07E0
0360
0000
0000
00C0
01E0
01E0
0330
03B0
03F8
01F8
0030
0060
80E0
41C0
3F80
1F00
ENDCHAR
STARTCHAR FBE0
ENCODING 64480
SWIDTH 288 0
DWIDTH 10 0
BBX 12 13 -2 -6
BITMAP
00C0
01E0
01E0
0110
0190
01F0
00F0
0030
07E0
8FE0
41C0
3F80
1F00
ENDCHAR
STARTCHAR FBE1
ENCODING 64481
SWIDTH 316 0
DWIDTH 11 0
BBX 13 13 -2 -6
BITMAP
00C0
01E0
01E0
0330
03B0
03F8
01F8
0030
07E0
8FE0
41C0
3F80
1F00
ENDCHAR
STARTCHAR FBE2
ENCODING 64482
SWIDTH 288 0
DWIDTH 10 0
BBX 12 18 -2 -6
BITMAP
0040
00E0
01B0
0110
0000
00C0
01E0
01E0
0110
0190
01F0
00F0
0030
0060
8060
41C0
3F80
1F00
ENDCHAR
STARTCHAR FBE3
ENCODING 64483
SWIDTH 316 0
DWIDTH 11 0
BBX 13 18 -2 -6
BITMAP
0040
00E0
01B0
0110
0000
00C0
01E0
01E0
0330
03B0
03F8
01F8
0030
0060
80E0
41C0
3F80
1F00
ENDCHAR
STARTCHAR FBE4
ENCODING 64484
SWIDTH 518 0
DWIDTH 18 0
BBX 16 21 1 -13
BITMAP
0007
001F
207A
20C0
4080
4180
41F8
81FE
803E
800E
C07C
E3F8
7FE0
3F00
0000
0080
01C0
00C0
0080
01C0
00C0
ENDCHAR
STARTCHAR FBE5
ENCODING 64485
SWIDTH 489 0
DWIDTH 17 0
BBX 17 17 1 -15
BITMAP
401F80
407F80
406000
80F000
80FC00
C07C00
E03C00
F1F800
7FE000
1F8000
000000
004000
00E000
006000
004000
00E000
006000
ENDCHAR
STARTCHAR FBE6
ENCODING 64486
SWIDTH 201 0
DWIDTH 7 0
BBX 7 15 -1 -7
BITMAP
04
04
04
06
06
06
7E
7C
00
10
38
18
10
38
18
ENDCHAR
STARTCHAR FBE7
ENCODING 64487
SWIDTH 288 0
DWIDTH 10 0
BBX 10 15 0 -7
BITMAP
0400
0400
0400
0600
0200
0600
FFC0
FFC0
0000
0800
1C00
0C00
0800
1C00
0C00
ENDCHAR
STARTCHAR FBE6
ENCODING 64488
SWIDTH 172 0
DWIDTH 6 0
BBX 6 8 0 0
BITMAP
08
08
08
0C
0C
0C
FC
F8
ENDCHAR
STARTCHAR FBE7
ENCODING 64489
SWIDTH 288 0
DWIDTH 10 0
BBX 10 8 0 0
BITMAP
0400
0400
0400
0600
0200
0600
FFC0
FFC0
ENDCHAR
STARTCHAR FBFC
ENCODING 64508
SWIDTH 518 0
DWIDTH 18 0
BBX 16 14 1 -6
BITMAP
0007
001F
207A
20C0
4080
4180
41F8
81FE
803E
800E
C07C
E3F8
7FE0
3F00
ENDCHAR
STARTCHAR FBFD
ENCODING 64509
SWIDTH 489 0
DWIDTH 17 0
BBX 17 10 1 -8
BITMAP
401F80
407F80
406000
80F000
80FC00
C07C00
E03C00
F1F800
7FE000
1F8000
ENDCHAR
STARTCHAR E6AE
ENCODING 64510
SWIDTH 172 0
DWIDTH 6 0
BBX 6 12 0 -4
BITMAP
08
08
08
0C
0C
0C
FC
F8
00
48
FC
6C
ENDCHAR
STARTCHAR E6AF
ENCODING 64511
SWIDTH 288 0
DWIDTH 10 0
BBX 10 12 0 -4
BITMAP
0400
0400
0400
0600
0200
0600
FFC0
FFC0
0000
2400
7E00
3600
ENDCHAR
STARTCHAR FDF2
ENCODING 65010
SWIDTH 633 0
DWIDTH 22 0
BBX 20 24 1 0
BITMAP
010000
010000
018000
018000
008000
009000
005000
025000
02F030
03E020
038030
002130
006330
006330
086330
086330
386330
786330
C82130
C82130
F82110
7C7310
0FFF10
07FE10
ENDCHAR
STARTCHAR FE70
ENCODING 65136
SWIDTH 201 0
DWIDTH 7 0
BBX 6 7 1 17
BITMAP
04
18
30
CC
38
60
80
ENDCHAR
STARTCHAR FE72
ENCODING 65138
SWIDTH 230 0
DWIDTH 8 0
BBX 7 7 1 17
BITMAP
08
1C
1C
F8
AC
32
60
ENDCHAR
STARTCHAR FE74
ENCODING 65140
SWIDTH 201 0
DWIDTH 7 0
BBX 6 7 1 -8
BITMAP
04
08
30
CC
38
60
80
ENDCHAR
STARTCHAR FE76
ENCODING 65142
SWIDTH 201 0
DWIDTH 7 0
BBX 6 4 1 17
BITMAP
0C
10
60
80
ENDCHAR
STARTCHAR FE78
ENCODING 65144
SWIDTH 201 0
DWIDTH 7 0
BBX 6 7 1 17
BITMAP
0C
1C
14
1C
1C
30
60
ENDCHAR
STARTCHAR FE7A
ENCODING 65146
SWIDTH 201 0
DWIDTH 7 0
BBX 6 4 1 -5
BITMAP
04
08
30
C0
ENDCHAR
STARTCHAR FE7C
ENCODING 65148
SWIDTH 201 0
DWIDTH 7 0
BBX 6 6 1 17
BITMAP
04
14
94
BC
F8
E0
ENDCHAR
STARTCHAR FE7E
ENCODING 65150
SWIDTH 172 0
DWIDTH 6 0
BBX 5 6 1 17
BITMAP
70
78
98
88
F8
F0
ENDCHAR
STARTCHAR FE80
ENCODING 65152
SWIDTH 345 0
DWIDTH 12 0
BBX 7 9 3 -1
BITMAP
38
78
40
80
FE
FC
60
80
80
ENDCHAR
STARTCHAR FE81
ENCODING 65153
SWIDTH 172 0
DWIDTH 6 0
BBX 6 17 0 0
BITMAP
34
78
80
10
30
30
30
30
30
30
30
30
30
10
10
10
10
ENDCHAR
STARTCHAR FE82
ENCODING 65154
SWIDTH 172 0
DWIDTH 6 0
BBX 6 18 0 0
BITMAP
04
7C
F0
00
40
40
40
40
40
40
40
40
60
60
60
60
3C
3C
ENDCHAR
STARTCHAR FE83
ENCODING 65155
SWIDTH 172 0
DWIDTH 6 0
BBX 5 19 0 0
BITMAP
70
C0
F8
70
40
10
10
20
30
30
30
30
30
10
10
10
10
10
10
ENDCHAR
STARTCHAR FE84
ENCODING 65156
SWIDTH 259 0
DWIDTH 9 0
BBX 6 20 3 0
BITMAP
70
C0
F8
70
40
00
20
60
60
60
20
20
20
20
20
20
20
30
1C
1C
ENDCHAR
STARTCHAR FE85
ENCODING 65157
SWIDTH 288 0
DWIDTH 10 0
BBX 12 20 -2 -6
BITMAP
01C0
0300
03E0
01C0
0100
0000
0000
0040
00E0
01B0
0130
01B0
01F0
00F0
0030
0030
8060
61C0
3F80
0F00
ENDCHAR
STARTCHAR FE86
ENCODING 65158
SWIDTH 316 0
DWIDTH 11 0
BBX 13 20 -2 -6
BITMAP
01C0
0300
03E0
01C0
0100
0000
0000
00C0
01E0
01E0
0330
03B0
03F8
01F8
0030
0060
80E0
41C0
3F80
1E00
ENDCHAR
STARTCHAR FE87
ENCODING 65159
SWIDTH 201 0
DWIDTH 7 0
BBX 5 23 1 -7
BITMAP
20
60
60
60
60
60
60
60
60
60
20
20
20
20
20
20
00
00
70
C0
F8
70
40
ENDCHAR
STARTCHAR FE88
ENCODING 65160
SWIDTH 230 0
DWIDTH 8 0
BBX 6 23 2 -7
BITMAP
40
40
C0
40
40
40
40
40
40
40
60
60
60
60
3C
3C
00
00
38
60
7C
38
20
ENDCHAR
STARTCHAR FE89
ENCODING 65161
SWIDTH 518 0
DWIDTH 18 0
BBX 16 19 1 -6
BITMAP
0380
0600
07C0
0380
0200
0007
001F
207A
20C0
4080
4180
41F8
81FE
803E
800E
C07C
E3F8
7FE0
3F00
ENDCHAR
STARTCHAR FE8A
ENCODING 65162
SWIDTH 489 0
DWIDTH 17 0
BBX 17 17 1 -8
BITMAP
070000
0C0000
0F8000
070000
040000
000000
000000
401F80
407F80
406000
80F000
80FC00
C07C00
E03C00
F1F800
7FE000
1F8000
ENDCHAR
STARTCHAR FE8B
ENCODING 65163
SWIDTH 259 0
DWIDTH 9 0
BBX 8 15 0 0
BITMAP
1C
30
3E
1C
10
00
00
02
06
06
07
03
07
FF
FE
ENDCHAR
STARTCHAR FE8C
ENCODING 65164
SWIDTH 288 0
DWIDTH 10 0
BBX 10 15 0 0
BITMAP
1C00
3000
3E00
1C00
1000
0000
0000
0400
0400
0400
0600
0200
0600
FFC0
FFC0
ENDCHAR
STARTCHAR FE8D
ENCODING 65165
SWIDTH 172 0
DWIDTH 6 0
BBX 2 16 2 0
BITMAP
C0
80
C0
C0
C0
C0
C0
C0
C0
C0
C0
C0
40
40
40
40
ENDCHAR
STARTCHAR FE8E
ENCODING 65166
SWIDTH 230 0
DWIDTH 8 0
BBX 5 16 3 0
BITMAP
40
C0
C0
C0
C0
C0
40
40
40
40
40
40
40
60
38
38
ENDCHAR
STARTCHAR FE8F
ENCODING 65167
SWIDTH 489 0
DWIDTH 17 0
BBX 15 13 1 -6
BITMAP
0004
8004
8002
8002
C00E
FFFC
3FF8
0000
0000
0000
0300
0380
0100
ENDCHAR
STARTCHAR FE90
ENCODING 65168
SWIDTH 547 0
DWIDTH 19 0
BBX 18 14 1 -7
BITMAP
000200
000200
800700
800300
800100
E00FC0
7FFFC0
3FF000
000000
000000
000000
030000
038000
010000
ENDCHAR
STARTCHAR FE91
ENCODING 65169
SWIDTH 201 0
DWIDTH 7 0
BBX 6 13 0 -6
BITMAP
08
18
18
0C
04
FC
F8
00
00
00
60
70
20
ENDCHAR
STARTCHAR FE92
ENCODING 65170
SWIDTH 259 0
DWIDTH 9 0
BBX 9 13 0 -6
BITMAP
0400
0400
0600
0600
0200
FF80
FF80
0000
0000
0000
3000
3800
1000
ENDCHAR
STARTCHAR FE93
ENCODING 65171
SWIDTH 259 0
DWIDTH 9 0
BBX 8 15 1 -1
BITMAP
6C
7E
24
00
00
20
20
38
3C
5E
87
83
FE
FE
10
ENDCHAR
STARTCHAR FE94
ENCODING 65172
SWIDTH 288 0
DWIDTH 10 0
BBX 10 17 0 0
BITMAP
3600
3F00
1200
0000
0000
0400
0400
0400
1C00
3C00
6400
E400
FC00
7C00
1600
07C0
03C0
ENDCHAR
STARTCHAR FE95
ENCODING 65173
SWIDTH 489 0
DWIDTH 17 0
BBX 15 10 1 0
BITMAP
06C0
07E0
0240
0004
8004
8002
8002
C00E
FFFC
3FF8
ENDCHAR
STARTCHAR FE96
ENCODING 65174
SWIDTH 547 0
DWIDTH 19 0
BBX 18 10 1 -1
BITMAP
06C000
07E000
024000
000200
800700
800300
800100
E00FC0
7FFFC0
3FF000
ENDCHAR
STARTCHAR FE97
ENCODING 65175
SWIDTH 230 0
DWIDTH 8 0
BBX 8 13 0 0
BITMAP
6C
7E
24
00
00
00
06
06
07
07
03
FF
FE
ENDCHAR
STARTCHAR FE98
ENCODING 65176
SWIDTH 259 0
DWIDTH 9 0
BBX 9 13 0 0
BITMAP
6C00
7E00
2400
0000
0000
0000
0400
0400
0600
0600
0200
FF80
FF80
ENDCHAR
STARTCHAR FE99
ENCODING 65177
SWIDTH 489 0
DWIDTH 17 0
BBX 15 14 1 0
BITMAP
0200
0700
0300
0000
06C0
07E0
0240
0004
8004
8002
8002
C00E
FFFC
3FF8
ENDCHAR
STARTCHAR FE9A
ENCODING 65178
SWIDTH 547 0
DWIDTH 19 0
BBX 18 14 1 -1
BITMAP
020000
070000
030000
000000
06C000
07E000
024000
000200
800700
800300
800100
E00FC0
7FFFC0
3FF000
ENDCHAR
STARTCHAR FE9B
ENCODING 65179
SWIDTH 230 0
DWIDTH 8 0
BBX 8 16 0 0
BITMAP
20
70
30
00
6C
7E
24
00
00
06
06
07
07
03
FF
FE
ENDCHAR
STARTCHAR FE9C
ENCODING 65180
SWIDTH 259 0
DWIDTH 9 0
BBX 9 16 0 0
BITMAP
2000
7000
3000
0000
6C00
7E00
2400
0000
0000
0400
0400
0600
0600
0200
FF80
FF80
ENDCHAR
STARTCHAR FE9D
ENCODING 65181
SWIDTH 374 0
DWIDTH 13 0
BBX 12 17 2 -9
BITMAP
7860
7FC0
FFC0
3800
6000
4000
4000
8000
8600
8700
8200
8000
C000
C000
7070
3FC0
1F00
ENDCHAR
STARTCHAR FE9E
ENCODING 65182
SWIDTH 403 0
DWIDTH 14 0
BBX 13 16 1 -9
BITMAP
3FC0
7FC0
FFC0
9D00
2100
41F8
40F8
8000
8000
8600
8700
8200
C000
7018
3FE0
1F80
ENDCHAR
STARTCHAR FE9F
ENCODING 65183
SWIDTH 460 0
DWIDTH 16 0
BBX 15 14 0 -7
BITMAP
1E00
3F80
23C0
00F0
007C
FFFE
FFFE
0000
0000
0000
0000
0C00
0E00
0400
ENDCHAR
STARTCHAR FEA0
ENCODING 65184
SWIDTH 403 0
DWIDTH 14 0
BBX 14 14 0 -7
BITMAP
3C00
7F00
4780
01E0
00F0
FFFC
FFFC
0000
0000
0000
0000
0C00
0E00
0400
ENDCHAR
STARTCHAR FEA1
ENCODING 65185
SWIDTH 403 0
DWIDTH 14 0
BBX 13 17 1 -9
BITMAP
3C30
3FE0
7FE0
1C00
3000
2000
2000
4000
4000
4000
4000
4000
6000
6000
3838
1FE0
0F80
ENDCHAR
STARTCHAR FEA2
ENCODING 65186
SWIDTH 403 0
DWIDTH 14 0
BBX 13 16 1 -9
BITMAP
3FC0
7FC0
FFC0
9D00
2100
41F8
40F8
8000
8000
8000
8000
8000
C000
7018
3FE0
1F80
ENDCHAR
STARTCHAR FEA3
ENCODING 65187
SWIDTH 460 0
DWIDTH 16 0
BBX 15 7 0 0
BITMAP
1E00
3F80
23C0
00F0
007C
FFFE
FFFE
ENDCHAR
STARTCHAR FEA4
ENCODING 65188
SWIDTH 403 0
DWIDTH 14 0
BBX 14 7 0 0
BITMAP
3C00
7F00
4780
01E0
00F0
FFFC
FFFC
ENDCHAR
STARTCHAR FEA5
ENCODING 65189
SWIDTH 374 0
DWIDTH 13 0
BBX 12 23 2 -9
BITMAP
0C00
0E00
0400
0000
0000
0000
7860
7FC0
FFC0
3800
6000
4000
4000
8000
8000
8000
8000
8000
C000
C000
7070
3FC0
1F00
ENDCHAR
STARTCHAR FEA6
ENCODING 65190
SWIDTH 403 0
DWIDTH 14 0
BBX 13 23 1 -9
BITMAP
0C00
0E00
0400
0000
0000
0000
0000
0000
7FC0
FFC0
9D00
2100
41F8
40F8
8000
8000
8000
8000
8000
C000
7018
3FE0
1F80
ENDCHAR
STARTCHAR FEA7
ENCODING 65191
SWIDTH 460 0
DWIDTH 16 0
BBX 15 14 0 0
BITMAP
0C00
0E00
0400
0000
0000
0000
0000
1E00
3F80
23C0
00F0
007C
FFFE
FFFE
ENDCHAR
STARTCHAR FEA8
ENCODING 65192
SWIDTH 403 0
DWIDTH 14 0
BBX 14 14 0 0
BITMAP
1800
1C00
0800
0000
0000
0000
0000
3C00
7F00
4780
01E0
00F0
FFFC
FFFC
ENDCHAR
STARTCHAR FEA9
ENCODING 65193
SWIDTH 316 0
DWIDTH 11 0
BBX 8 10 2 0
BITMAP
04
06
06
02
03
01
81
CF
FF
7C
ENDCHAR
STARTCHAR FEAA
ENCODING 65194
SWIDTH 316 0
DWIDTH 11 0
BBX 10 11 1 -1
BITMAP
0200
0200
0600
0300
0300
0300
8100
8180
CFC0
FFC0
7C00
ENDCHAR
STARTCHAR FEAB
ENCODING 65195
SWIDTH 316 0
DWIDTH 11 0
BBX 8 16 2 0
BITMAP
10
38
18
00
00
00
04
06
06
02
03
01
81
CF
FF
7C
ENDCHAR
STARTCHAR FEAC
ENCODING 65196
SWIDTH 316 0
DWIDTH 11 0
BBX 10 17 1 -1
BITMAP
0800
1C00
0C00
0000
0000
0000
0200
0200
0600
0300
0300
0300
8100
8180
CFC0
FFC0
7C00
ENDCHAR
STARTCHAR FEAD
ENCODING 65197
SWIDTH 259 0
DWIDTH 9 0
BBX 11 11 -2 -5
BITMAP
0080
00C0
00C0
0060
0060
0060
0060
00C0
8180
7F00
1E00
ENDCHAR
STARTCHAR FEAE
ENCODING 65198
SWIDTH 316 0
DWIDTH 11 0
BBX 13 11 -2 -5
BITMAP
0080
01C0
00C0
0060
0078
0078
0060
00C0
83C0
7F00
1C00
ENDCHAR
STARTCHAR FEAF
ENCODING 65199
SWIDTH 259 0
DWIDTH 9 0
BBX 11 18 -2 -5
BITMAP
0400
0E00
0600
0000
0000
0000
0000
0080
00C0
00C0
0060
0060
0060
0060
00C0
8180
7F00
1E00
ENDCHAR
STARTCHAR FEB0
ENCODING 65200
SWIDTH 316 0
DWIDTH 11 0
BBX 13 18 -2 -5
BITMAP
0400
0E00
0600
0000
0000
0000
0000
0080
01C0
00C0
0060
0078
0078
0060
00C0
83C0
7F00
1C00
ENDCHAR
STARTCHAR FEB1
ENCODING 65201
SWIDTH 691 0
DWIDTH 24 0
BBX 22 12 1 -6
BITMAP
000084
00208C
00208C
40318C
403FFC
401FFC
801000
801000
806000
E1E000
7FC000
3E0000
ENDCHAR
STARTCHAR FEB2
ENCODING 65202
SWIDTH 720 0
DWIDTH 25 0
BBX 24 12 1 -6
BITMAP
000084
00208C
00208C
40318C
403FFF
801FFF
801000
801000
806000
E1E000
7FC000
3E0000
ENDCHAR
STARTCHAR FEB3
ENCODING 65203
SWIDTH 489 0
DWIDTH 17 0
BBX 16 6 0 0
BITMAP
1021
1023
3023
3063
FFFF
FFFE
ENDCHAR
STARTCHAR FEB4
ENCODING 65204
SWIDTH 518 0
DWIDTH 18 0
BBX 18 6 0 0
BITMAP
102100
102300
302300
306300
FFFFC0
FFFFC0
ENDCHAR
STARTCHAR FEB5
ENCODING 65205
SWIDTH 720 0
DWIDTH 25 0
BBX 24 21 1 -6
BITMAP
000080
0001C0
0000C0
000000
0001B0
0001F8
000090
000000
000000
000042
001046
003047
4038C7
401FFE
401FFE
801800
801800
803000
E0F000
7FC000
3F0000
ENDCHAR
STARTCHAR FEB6
ENCODING 65206
SWIDTH 748 0
DWIDTH 26 0
BBX 25 21 1 -6
BITMAP
00008000
0001C000
0000C000
00000000
0001B000
0001F800
00009000
00000000
00000000
00004200
00104600
00304600
4038C700
401FFF80
401FFF80
80080000
80180000
80300000
E0F00000
7FC00000
3F000000
ENDCHAR
STARTCHAR FEB7
ENCODING 65207
SWIDTH 518 0
DWIDTH 18 0
BBX 17 15 0 0
BITMAP
004000
00E000
006000
000000
00D800
00FC00
004800
000000
000000
102180
102180
102180
307380
FFFF80
FFFF00
ENDCHAR
STARTCHAR FEB8
ENCODING 65208
SWIDTH 547 0
DWIDTH 19 0
BBX 19 15 0 0
BITMAP
004000
00E000
006000
000000
00D800
00FC00
004800
000000
000000
102180
102180
102180
307380
FFFFE0
FFFFE0
ENDCHAR
STARTCHAR FEB9
ENCODING 65209
SWIDTH 864 0
DWIDTH 30 0
BBX 29 13 1 -6
BITMAP
00000780
00000FE0
00103DF0
00307078
4019C038
401FFFF0
400FFFE0
80080000
80080000
C0100000
E0F00000
7FE00000
1F000000
ENDCHAR
STARTCHAR FEBA
ENCODING 65210
SWIDTH 921 0
DWIDTH 32 0
BBX 31 13 1 -6
BITMAP
00000780
00000FE0
00103DF0
00307078
4019C038
401FFFFE
400FFFF6
80080000
80080000
C0100000
E0F00000
7FE00000
1F000000
ENDCHAR
STARTCHAR FEBB
ENCODING 65211
SWIDTH 691 0
DWIDTH 24 0
BBX 22 7 0 0
BITMAP
0001C0
1007F0
101E78
10381C
30700C
FFFFFC
FFFFF8
ENDCHAR
STARTCHAR FEBC
ENCODING 65212
SWIDTH 720 0
DWIDTH 25 0
BBX 25 7 0 0
BITMAP
0001C000
1007F000
101E7800
10381C00
30700C00
FFFFFF80
FFFFFF80
ENDCHAR
STARTCHAR FEBD
ENCODING 65213
SWIDTH 864 0
DWIDTH 30 0
BBX 29 19 1 -6
BITMAP
00000600
00000700
00000200
00000000
00000000
00000000
00000780
00000FE0
00103DF0
00307078
4019C038
401FFFF0
400FFFE0
80080000
80080000
C0100000
E0F00000
7FE00000
1F000000
ENDCHAR
STARTCHAR FEBE
ENCODING 65214
SWIDTH 921 0
DWIDTH 32 0
BBX 31 19 1 -6
BITMAP
00000600
00000700
00000200
00000000
00000000
00000000
00000780
00000FE0
00103DF0
00307078
4019C038
401FFFFE
400FFFF6
80080000
80080000
C0100000
E0F00000
7FE00000
1F000000
ENDCHAR
STARTCHAR FEBF
ENCODING 65215
SWIDTH 691 0
DWIDTH 24 0
BBX 22 13 0 0
BITMAP
000300
000380
000100
000000
000000
000000
0001C0
1007F0
101E78
10381C
30700C
FFFFFC
FFFFF8
ENDCHAR
STARTCHAR FEC0
ENCODING 65216
SWIDTH 720 0
DWIDTH 25 0
BBX 25 13 0 0
BITMAP
00030000
00038000
00010000
00000000
00000000
00000000
0001C000
1007F000
101E7800
10381C00
30700C00
FFFFFF80
FFFFFF80
ENDCHAR
STARTCHAR FEC1
ENCODING 65217
SWIDTH 518 0
DWIDTH 18 0
BBX 16 17 1 0
BITMAP
0800
0800
0C00
0E00
0C00
0C00
0C00
0C00
0400
0400
0478
05FE
059E
0707
1E07
FFFE
7FFE
ENDCHAR
STARTCHAR FEC2
ENCODING 65218
SWIDTH 547 0
DWIDTH 19 0
BBX 18 17 1 0
BITMAP
080000
080000
0C0000
0E0000
0C0000
0C0000
0C0000
0C0000
040000
040000
047800
05FE00
059E00
070700
1E0700
FFFFC0
7FFFC0
ENDCHAR
STARTCHAR FEC3
ENCODING 65219
SWIDTH 460 0
DWIDTH 16 0
BBX 14 17 0 0
BITMAP
2000
2000
2000
3800
3000
3000
3000
1000
1000
1000
11E0
13F8
1678
1C1C
381C
FFFC
FFF8
ENDCHAR
STARTCHAR FEC4
ENCODING 65220
SWIDTH 460 0
DWIDTH 16 0
BBX 16 17 0 0
BITMAP
2000
2000
2000
3800
3000
3000
3000
1000
1000
1000
11E0
13F8
1678
1C1C
381C
FFFF
FFFF
ENDCHAR
STARTCHAR FEC5
ENCODING 65221
SWIDTH 518 0
DWIDTH 18 0
BBX 16 17 1 0
BITMAP
0800
0800
0C00
0E00
0C20
0C70
0C30
0C00
0400
0400
0478
05FE
059E
0707
1E07
FFFE
7FFE
ENDCHAR
STARTCHAR FEC6
ENCODING 65222
SWIDTH 547 0
DWIDTH 19 0
BBX 18 17 1 0
BITMAP
080000
080000
0C0000
0E0000
0C2000
0C7000
0C3000
0C0000
040000
040000
047800
05FE00
059E00
070700
1E0700
FFFFC0
7FFFC0
ENDCHAR
STARTCHAR FEC7
ENCODING 65223
SWIDTH 460 0
DWIDTH 16 0
BBX 14 17 0 0
BITMAP
2000
2000
2000
3800
3080
31C0
30C0
1000
1000
1000
11E0
13F8
1678
1C1C
381C
FFFC
FFF8
ENDCHAR
STARTCHAR FEC8
ENCODING 65224
SWIDTH 460 0
DWIDTH 16 0
BBX 16 17 0 0
BITMAP
2000
2000
2000
3800
3080
31C0
30C0
1000
1000
1000
11E0
13F8
1678
1C1C
381C
FFFF
FFFF
ENDCHAR
STARTCHAR FEC9
ENCODING 65225
SWIDTH 374 0
DWIDTH 13 0
BBX 13 20 1 -10
BITMAP
1C00
3E00
3100
4000
7180
7F80
3F00
1C00
3000
6000
4000
8000
8000
8000
8000
8000
8000
6018
7FE0
1F80
ENDCHAR
STARTCHAR FECA
ENCODING 65226
SWIDTH 374 0
DWIDTH 13 0
BBX 13 18 0 -10
BITMAP
0400
1F00
3F00
3F00
1E00
1F80
33F8
20F8
4000
4000
C000
8000
8000
C000
C000
7000
3FC0
0F00
ENDCHAR
STARTCHAR FECB
ENCODING 65227
SWIDTH 345 0
DWIDTH 12 0
BBX 11 9 0 0
BITMAP
0E00
1F00
3980
7000
7000
7000
3C20
FFE0
FFC0
ENDCHAR
STARTCHAR FECC
ENCODING 65228
SWIDTH 316 0
DWIDTH 11 0
BBX 11 8 0 0
BITMAP
1E00
3F00
3F00
1F00
0F00
3F80
FFE0
E1E0
ENDCHAR
STARTCHAR FECD
ENCODING 65229
SWIDTH 374 0
DWIDTH 13 0
BBX 13 25 1 -10
BITMAP
1800
1C00
0800
0000
0000
1C00
3E00
3100
4000
7180
7F80
3F00
1C00
3000
6000
4000
8000
8000
8000
8000
8000
8000
6018
7FE0
1F80
ENDCHAR
STARTCHAR FECE
ENCODING 65230
SWIDTH 374 0
DWIDTH 13 0
BBX 13 25 0 -10
BITMAP
1800
1C00
0800
0000
0000
0000
0000
0400
1F00
3F00
3F00
1E00
1F80
33F8
20F8
4000
4000
C000
8000
8000
C000
C000
7000
3FC0
0F00
ENDCHAR
STARTCHAR FECF
ENCODING 65231
SWIDTH 345 0
DWIDTH 12 0
BBX 11 15 0 0
BITMAP
0C00
0E00
0400
0000
0000
0000
0E00
1F00
3980
7000
7000
7000
3C20
FFE0
FFC0
ENDCHAR
STARTCHAR FED0
ENCODING 65232
SWIDTH 316 0
DWIDTH 11 0
BBX 11 15 0 0
BITMAP
1800
1C00
0800
0000
0000
0000
0000
1E00
3F00
3F00
1F00
0F00
3F80
FFE0
E1E0
ENDCHAR
STARTCHAR FED1
ENCODING 65233
SWIDTH 633 0
DWIDTH 22 0
BBX 20 16 1 -1
BITMAP
000080
0001C0
0000C0
000000
000000
000040
0001E0
0001F0
400330
400330
8003F0
8001F0
C000F0
7FFFF0
3FFFE0
07E000
ENDCHAR
STARTCHAR FED2
ENCODING 65234
SWIDTH 662 0
DWIDTH 23 0
BBX 22 16 1 -1
BITMAP
000080
0001C0
0000C0
000000
000000
000000
0000C0
0001E0
000370
800230
800390
8003F0
C001F0
FFFFFC
7FFFFC
3FFFC0
ENDCHAR
STARTCHAR FED3
ENCODING 65235
SWIDTH 288 0
DWIDTH 10 0
BBX 9 15 0 0
BITMAP
0400
0E00
0600
0000
0000
0600
0F00
0B00
1980
1880
1F80
0F80
0780
FF80
FF00
ENDCHAR
STARTCHAR FED4
ENCODING 65236
SWIDTH 288 0
DWIDTH 10 0
BBX 10 15 0 0
BITMAP
1000
3800
1800
0000
0000
0C00
1C00
3400
2200
3200
3E00
3E00
0F00
FFC0
FFC0
ENDCHAR
STARTCHAR FED5
ENCODING 65237
SWIDTH 460 0
DWIDTH 16 0
BBX 14 20 1 -7
BITMAP
0120
03F0
01B0
0000
0000
0000
0070
0078
00F8
009C
40CC
40FC
807C
8004
8004
8018
C078
61F0
7FC0
1F00
ENDCHAR
STARTCHAR FED6
ENCODING 65238
SWIDTH 460 0
DWIDTH 16 0
BBX 16 20 1 -7
BITMAP
0120
03F0
01B0
0000
0000
0000
0070
0078
00F8
009C
40CC
40FF
807F
800C
800C
8018
C078
61F0
7FC0
1F00
ENDCHAR
STARTCHAR FED7
ENCODING 65239
SWIDTH 288 0
DWIDTH 10 0
BBX 9 15 0 0
BITMAP
1200
3F00
1B00
0000
0000
0600
0F00
0B00
1980
1880
1F80
0F80
0780
FF80
FF00
ENDCHAR
STARTCHAR FED8
ENCODING 65240
SWIDTH 288 0
DWIDTH 10 0
BBX 10 15 0 0
BITMAP
2400
7E00
3600
0000
0000
0C00
1C00
3400
2200
3200
3E00
3E00
0F00
FFC0
FFC0
ENDCHAR
STARTCHAR FED9
ENCODING 65241
SWIDTH 432 0
DWIDTH 15 0
BBX 13 17 1 0
BITMAP
0008
0018
0018
0018
0018
0018
0218
0218
0718
0108
8208
8008
8008
C008
E038
7FF8
7FF0
ENDCHAR
STARTCHAR FEDA
ENCODING 65242
SWIDTH 460 0
DWIDTH 16 0
BBX 15 17 1 0
BITMAP
0008
0018
0038
0018
0018
0018
0218
0218
0718
0118
8208
8008
8008
C008
E038
7FFE
7FF6
ENDCHAR
STARTCHAR FEDB
ENCODING 65243
SWIDTH 316 0
DWIDTH 11 0
BBX 11 17 -1 0
BITMAP
0020
00E0
07E0
1F00
7C00
7000
E000
F000
7800
3E00
0F00
0380
01C0
00E0
0060
7FE0
7FE0
ENDCHAR
STARTCHAR FEDC
ENCODING 65244
SWIDTH 374 0
DWIDTH 13 0
BBX 14 17 -1 0
BITMAP
0020
00E0
07E0
1F80
7C00
7000
E000
F000
7800
3E00
0F00
0380
01C0
00E0
0070
7FFC
7FFC
ENDCHAR
STARTCHAR FEDD
ENCODING 65245
SWIDTH 403 0
DWIDTH 14 0
BBX 12 21 1 -4
BITMAP
0020
0060
0060
0060
0060
0020
0020
0020
0030
0030
0030
0030
4030
4030
8010
8010
8010
8030
C0E0
7FC0
1E00
ENDCHAR
STARTCHAR FEDE
ENCODING 65246
SWIDTH 460 0
DWIDTH 16 0
BBX 15 22 1 -5
BITMAP
0020
0020
0020
0020
0030
0030
0030
0030
0030
0030
0030
0030
0030
4010
4010
801E
801E
8010
C030
60E0
7FC0
1F00
ENDCHAR
STARTCHAR FEDF
ENCODING 65247
SWIDTH 172 0
DWIDTH 6 0
BBX 5 17 0 0
BITMAP
10
10
30
30
30
30
10
10
10
10
10
10
18
18
18
F8
F0
ENDCHAR
STARTCHAR FEE0
ENCODING 65248
SWIDTH 201 0
DWIDTH 7 0
BBX 7 17 0 0
BITMAP
10
10
30
30
30
30
10
10
10
10
10
10
10
18
18
FE
EE
ENDCHAR
STARTCHAR FEE1
ENCODING 65249
SWIDTH 345 0
DWIDTH 12 0
BBX 10 17 1 -10
BITMAP
0C00
1C00
3E00
2700
0380
7FC0
FFC0
C000
C000
C000
4000
6000
6000
6000
2000
2000
2000
ENDCHAR
STARTCHAR FEE2
ENCODING 65250
SWIDTH 345 0
DWIDTH 12 0
BBX 11 17 1 -10
BITMAP
1C00
3E00
6E00
4700
0780
7FE0
FFE0
8000
8000
8000
8000
4000
4000
4000
4000
4000
4000
ENDCHAR
STARTCHAR FEE3
ENCODING 65251
SWIDTH 316 0
DWIDTH 11 0
BBX 10 7 0 0
BITMAP
0700
0F80
0D80
18C0
1CC0
FFC0
E780
ENDCHAR
STARTCHAR FEE4
ENCODING 65252
SWIDTH 345 0
DWIDTH 12 0
BBX 12 7 0 0
BITMAP
0600
0F00
1980
1180
3DC0
FFF0
CFF0
ENDCHAR
STARTCHAR FEE5
ENCODING 65253
SWIDTH 432 0
DWIDTH 15 0
BBX 13 18 1 -6
BITMAP
0200
0700
0300
0000
0000
0000
0010
0010
2038
4018
4018
8008
8008
C018
C078
F9F0
7FE0
1F00
ENDCHAR
STARTCHAR FEE6
ENCODING 65254
SWIDTH 432 0
DWIDTH 15 0
BBX 15 18 0 -6
BITMAP
0200
0700
0300
0000
0000
0000
0000
0018
2018
201C
400E
400E
C00C
C008
E018
F8F0
7FE0
1F80
ENDCHAR
STARTCHAR FEE7
ENCODING 65255
SWIDTH 230 0
DWIDTH 8 0
BBX 6 14 0 0
BITMAP
20
70
30
00
00
00
08
08
18
0C
0C
04
FC
F8
ENDCHAR
STARTCHAR FEE8
ENCODING 65256
SWIDTH 288 0
DWIDTH 10 0
BBX 10 14 0 0
BITMAP
1000
3800
1800
0000
0000
0000
0400
0400
0400
0600
0200
0600
FFC0
FFC0
ENDCHAR
STARTCHAR FEE9
ENCODING 65257
SWIDTH 259 0
DWIDTH 9 0
BBX 8 10 1 -1
BITMAP
20
20
38
3C
5E
87
83
FE
FE
10
ENDCHAR
STARTCHAR FEEA
ENCODING 65258
SWIDTH 288 0
DWIDTH 10 0
BBX 10 12 0 0
BITMAP
0400
0400
0400
1C00
3C00
6400
E400
FC00
7C00
1600
07C0
03C0
ENDCHAR
STARTCHAR FEEB
ENCODING 65259
SWIDTH 345 0
DWIDTH 12 0
BBX 11 11 0 -1
BITMAP
0600
0700
0780
0FC0
0FC0
12E0
1260
1F20
FFE0
FBE0
0040
ENDCHAR
STARTCHAR FEEC
ENCODING 65260
SWIDTH 288 0
DWIDTH 10 0
BBX 10 15 0 -6
BITMAP
0200
0700
0F00
0B00
1900
1300
3E00
FFC0
FFC0
3700
3300
3900
1B00
1E00
0600
ENDCHAR
STARTCHAR FEED
ENCODING 65261
SWIDTH 288 0
DWIDTH 10 0
BBX 12 13 -2 -6
BITMAP
00C0
01E0
01E0
0110
0190
01F0
00F0
0030
0060
8060
41C0
3F80
1F00
ENDCHAR
STARTCHAR FEEE
ENCODING 65262
SWIDTH 288 0
DWIDTH 10 0
BBX 12 13 -2 -6
BITMAP
00C0
01E0
01E0
0110
0190
01F0
00F0
0030
0060
8060
41C0
3F80
1F00
ENDCHAR
STARTCHAR FEEF
ENCODING 65263
SWIDTH 518 0
DWIDTH 18 0
BBX 16 14 1 -6
BITMAP
0007
001F
207A
20C0
4080
4180
41F8
81FE
803E
800E
C07C
E3F8
7FE0
3F00
ENDCHAR
STARTCHAR FEF0
ENCODING 65264
SWIDTH 489 0
DWIDTH 17 0
BBX 17 10 1 -8
BITMAP
401F80
407F80
406000
80F000
80FC00
C07C00
E03C00
F1F800
7FE000
1F8000
ENDCHAR
STARTCHAR FEF1
ENCODING 65265
SWIDTH 518 0
DWIDTH 18 0
BBX 16 19 1 -11
BITMAP
0007
001F
207A
20C0
4080
4180
41F8
81FE
803E
800E
C07C
E3F8
7FE0
3F00
0000
0000
1200
3F00
1B00
ENDCHAR
STARTCHAR FEF2
ENCODING 65266
SWIDTH 489 0
DWIDTH 17 0
BBX 17 14 1 -12
BITMAP
401F80
407F80
406000
80F000
80FC00
C07C00
E03C00
F1F800
7FE000
1F8000
000000
090000
1F8000
0D8000
ENDCHAR
STARTCHAR FEF3
ENCODING 65267
SWIDTH 201 0
DWIDTH 7 0
BBX 7 15 -1 -7
BITMAP
04
04
04
06
06
06
7E
7C
00
00
00
00
48
FC
6C
ENDCHAR
STARTCHAR FEF4
ENCODING 65268
SWIDTH 288 0
DWIDTH 10 0
BBX 10 15 0 -7
BITMAP
0400
0400
0400
0600
0200
0600
FFC0
FFC0
0000
0000
0000
0000
4800
FC00
6C00
ENDCHAR
STARTCHAR FEF5
ENCODING 65269
SWIDTH 374 0
DWIDTH 13 0
BBX 13 19 0 0
BITMAP
3C00
7800
8010
0030
6030
7038
7830
7C30
3E20
0720
01A0
01E0
00C0
00C0
01E0
0320
0620
0FE0
0FC0
ENDCHAR
STARTCHAR FEF6
ENCODING 65270
SWIDTH 460 0
DWIDTH 16 0
BBX 16 20 0 -1
BITMAP
0200
7C00
7810
8010
3010
3810
3C10
3E18
1E18
0318
0318
0198
01B8
01B8
00F8
00D8
01CC
018F
0787
3E00
ENDCHAR
STARTCHAR FEF7
ENCODING 65271
SWIDTH 460 0
DWIDTH 16 0
BBX 13 22 1 0
BITMAP
6000
E000
8000
F800
6000
8010
2030
7038
7838
3C30
1E30
0730
0330
01A0
00E0
00C0
0040
00A0
0120
0720
07E0
07C0
ENDCHAR
STARTCHAR FEF8
ENCODING 65272
SWIDTH 518 0
DWIDTH 18 0
BBX 16 22 1 -1
BITMAP
6000
8000
9800
F000
C010
9010
3010
7810
3C10
3E18
1618
0318
0318
0118
01B8
01B8
01F8
01D8
01CC
018F
0787
3E00
ENDCHAR
STARTCHAR FEF9
ENCODING 65273
SWIDTH 374 0
DWIDTH 13 0
BBX 13 25 0 -8
BITMAP
0010
4030
F038
7838
7830
3C30
0620
0320
03A0
01E0
00C0
00C0
01E0
0320
0620
0FE0
0FC0
0000
0000
1C00
3800
2000
3E00
1800
1000
ENDCHAR
STARTCHAR FEFA
ENCODING 65274
SWIDTH 460 0
DWIDTH 16 0
BBX 16 25 0 -8
BITMAP
0010
7010
7810
7810
3C10
1E18
0618
0318
0318
0198
01B8
01B8
00F8
00D8
01CC
018F
0787
3E00
0000
1C00
3800
2000
3E00
1800
1000
ENDCHAR
STARTCHAR FEFB
ENCODING 65275
SWIDTH 374 0
DWIDTH 13 0
BBX 13 17 0 0
BITMAP
0010
4030
F038
7838
7830
3C30
0620
0320
03A0
01E0
00C0
00C0
01E0
0320
0620
0FE0
0FC0
ENDCHAR
STARTCHAR FEFC
ENCODING 65276
SWIDTH 460 0
DWIDTH 16 0
BBX 16 18 0 -1
BITMAP
0010
7010
7810
7810
3C10
1E18
0618
0318
0318
0198
01B8
01B8
00F8
00D8
01CC
018F
0787
3E00
ENDCHAR
ENDFONT
